<?xml version="1.0" encoding="utf-8"?>
<!-- Generator: Adobe Illustrator 24.1.2, SVG Export Plug-In . SVG Version: 6.00 Build 0)  -->
<svg version="1.1" id="Layer_1" xmlns="http://www.w3.org/2000/svg" xmlns:xlink="http://www.w3.org/1999/xlink" x="0px" y="0px"
	 viewBox="0 0 500 355" style="enable-background:new 0 0 500 355;" xml:space="preserve">
<style type="text/css">
	.st0{fill-rule:evenodd;clip-rule:evenodd;fill:#EB0001;}
	.st1{fill-rule:evenodd;clip-rule:evenodd;fill:#BC0A09;}
	.st2{fill-rule:evenodd;clip-rule:evenodd;}
	.st3{fill-rule:evenodd;clip-rule:evenodd;fill:#FFFFFF;}
	.st4{fill-rule:evenodd;clip-rule:evenodd;fill:#4D4D4D;}
	.st5{fill-rule:evenodd;clip-rule:evenodd;fill:#FFB400;}
	.st6{fill-rule:evenodd;clip-rule:evenodd;fill:#02163D;}
	.st7{fill-rule:evenodd;clip-rule:evenodd;fill:#89A1A1;}
	.st8{fill-rule:evenodd;clip-rule:evenodd;fill:#979797;}
	.st9{clip-path:url(#SVGID_1_);}
	.st10{fill:#940909;}
	.st11{fill:#FFB38A;}
	.st12{fill:#A2E2E1;}
	.st13{fill:#8ECECC;}
	.st14{fill:#BC0A09;}
	.st15{fill:#EB0001;}
	.st16{fill:#300C0F;}
	.st17{fill:#E6E2DA;}
	.st18{fill:#D58D67;}
	.st19{fill:#030404;}
	.st20{fill-rule:evenodd;clip-rule:evenodd;fill:#C6D7D7;}
	.st21{fill-rule:evenodd;clip-rule:evenodd;fill:#333333;}
	.st22{fill-rule:evenodd;clip-rule:evenodd;fill:#FFF100;}
	.st23{fill-rule:evenodd;clip-rule:evenodd;fill:#6D6E70;}
	.st24{fill-rule:evenodd;clip-rule:evenodd;fill:#EC1C24;}
	.st25{fill:#FFFFFF;}
	.st26{fill:#041018;}
	.st27{fill:#EC1C24;}
	.st28{fill-rule:evenodd;clip-rule:evenodd;fill:none;}
</style>
<g>
	<g>
		<g>
			<g>
				<path class="st0" d="M13.2,6.6h300.4c3.2,0,5.8,2.6,5.8,5.8v213.3c0,3.2-2.6,5.8-5.8,5.8H13.2c-3.2,0-5.8-2.6-5.8-5.8V12.4
					C7.4,9.2,10,6.6,13.2,6.6z"/>
				<path class="st1" d="M16.5,15.7V30h293.9V15.7H16.5L16.5,15.7z M16.5,34.9v29.8h293.9V34.9H16.5L16.5,34.9z M16.5,69.5v29.8
					h293.9V69.5H16.5L16.5,69.5z M16.5,104.2V134h293.9v-29.8H16.5L16.5,104.2z M16.5,138.9v29.8h293.9v-29.8H16.5L16.5,138.9z
					 M16.5,173.5v29.8h293.9v-29.8H16.5L16.5,173.5z M16.5,208.2v14.3h293.9v-14.3H16.5z"/>
				<rect x="2.1" y="237.8" class="st2" width="327.1" height="12.4"/>
				<g>
					<path class="st0" d="M330.6,36h111.5c2.8,0,5.1,1.6,6.2,4.1l46.2,110.2c0.4,0.9,0.5,1.7,0.5,2.6v142.7c0,2.4-2,4.4-4.4,4.4
						h-18.9c0-31.8-25.8-57.6-57.6-57.6c-31.8,0-57.6,25.8-57.6,57.6h-26c-2.4,0-4.4-2-4.4-4.4V40.4C326.1,38,328.1,36,330.6,36z"/>
					<path class="st1" d="M334.5,55.1c0-5.9,4.8-10.8,10.8-10.8h88.6c4.4,0,8.2,2.5,9.9,6.6l35.2,83.9c1.4,3.4,1.1,7.1-1,10.1
						c-2,3.1-5.3,4.8-9,4.8h-38.7c-3,0-5.6-1.1-7.7-3.2l-15.6-16c-0.6-0.6-1.1-0.8-1.9-0.8h-59.8c-5.9,0-10.8-4.8-10.8-10.8V55.1z"
						/>
					<path class="st3" d="M338.5,55.1V119c0,3.7,3,6.7,6.7,6.7h59.8c1.9,0,3.5,0.7,4.8,2l15.6,16c1.3,1.3,2.9,2,4.8,2H469
						c2.3,0,4.3-1.1,5.6-3c1.3-1.9,1.5-4.2,0.6-6.3L440,52.5c-1.1-2.6-3.4-4.1-6.2-4.1h-88.6C341.6,48.4,338.5,51.4,338.5,55.1z"/>
					<path class="st1" d="M340.5,155.3v114.2c0,2.5,1.4,4.8,3.5,5.9c10.1-28.9,37.7-49.7,70.1-49.7c25.9,0,48.8,13.3,62,33.5v-83.9
						c0-3.7-3-6.7-6.7-6.7h-43c-1.9,0-3.5-0.7-4.8-2l-15.6-16c-1.3-1.3-2.9-2-4.8-2h-54C343.5,148.6,340.5,151.6,340.5,155.3z"/>
					<path class="st2" d="M495,170h-10.9c-1.3,0-2.4,1.1-2.4,2.4v90.4c0,1.3,1.1,2.4,2.4,2.4H495V170z"/>
					<path class="st4" d="M495,176.4h-7.6c-0.7,0-1.3,0.6-1.3,1.3v3c0,0.7,0.6,1.3,1.3,1.3h7.6V176.4L495,176.4z M495,259v-5.6h-7.6
						c-0.7,0-1.3,0.6-1.3,1.3v3c0,0.7,0.6,1.3,1.3,1.3H495L495,259z M495,250.4v-5.6h-7.6c-0.7,0-1.3,0.6-1.3,1.3v3
						c0,0.7,0.6,1.3,1.3,1.3H495L495,250.4z M495,241.9v-5.6h-7.6c-0.7,0-1.3,0.6-1.3,1.3v3c0,0.7,0.6,1.3,1.3,1.3H495L495,241.9z
						 M495,233.3v-5.6h-7.6c-0.7,0-1.3,0.6-1.3,1.3v3c0,0.7,0.6,1.3,1.3,1.3H495L495,233.3z M495,224.8v-5.6h-7.6
						c-0.7,0-1.3,0.6-1.3,1.3v3c0,0.7,0.6,1.3,1.3,1.3H495L495,224.8z M495,216.2v-5.6h-7.6c-0.7,0-1.3,0.6-1.3,1.3v3
						c0,0.7,0.6,1.3,1.3,1.3H495L495,216.2z M495,207.6v-5.6h-7.6c-0.7,0-1.3,0.6-1.3,1.3v3c0,0.7,0.6,1.3,1.3,1.3H495L495,207.6z
						 M495,199.1v-5.6h-7.6c-0.7,0-1.3,0.6-1.3,1.3v3c0,0.7,0.6,1.3,1.3,1.3H495L495,199.1z M495,190.5V185h-7.6
						c-0.7,0-1.3,0.6-1.3,1.3v3c0,0.7,0.6,1.3,1.3,1.3H495z"/>
					<path class="st0" d="M354.1,157.8h14.7c1.2,0,2.1,0.9,2.1,2.1v3.1c0,1.2-0.9,2.1-2.1,2.1h-14.7c-1.2,0-2.1-0.9-2.1-2.1v-3.1
						C351.9,158.8,352.9,157.8,354.1,157.8z"/>
					<path class="st5" d="M495,188.2c-4.6,4-7.6,10.4-7.6,17.5c0,7.1,3,13.4,7.6,17.5V188.2z"/>
				</g>
				<path class="st0" d="M253,237.8h33.1c16,0,29,13.1,29,29l0,0c0,16-13.1,29-29,29H253c-16,0-29-13.1-29-29l0,0
					C224,250.8,237.1,237.8,253,237.8z"/>
				<path class="st1" d="M260.5,237.8v58.1H253c-0.7,0-1.3,0-2-0.1v-57.9c0.6,0,1.3-0.1,2-0.1H260.5L260.5,237.8z M278.6,237.8h7.5
					c0.7,0,1.3,0,2,0.1v57.9c-0.6,0-1.3,0.1-2,0.1h-7.5V237.8z"/>
				<g>
					<path class="st6" d="M414.2,246.7c29.6,0,53.6,24,53.6,53.6c0,29.6-24,53.6-53.6,53.6c-29.6,0-53.6-24-53.6-53.6
						C360.6,270.7,384.6,246.7,414.2,246.7L414.2,246.7z M414.2,267.3c-18.2,0-32.9,14.7-32.9,32.9c0,18.2,14.7,32.9,32.9,32.9
						c18.2,0,32.9-14.7,32.9-32.9C447.1,282.1,432.3,267.3,414.2,267.3z"/>
					<path class="st7" d="M414.2,267.3c18.2,0,32.9,14.7,32.9,32.9c0,18.2-14.7,32.9-32.9,32.9c-18.2,0-32.9-14.7-32.9-32.9
						C381.3,282.1,396,267.3,414.2,267.3L414.2,267.3z M402.4,285.1l4.7,4.7c1.4-0.9,3-1.6,4.6-1.9v-6.7
						C408.3,281.6,405,283,402.4,285.1L402.4,285.1z M403.7,293.2l-4.7-4.7c-2.1,2.7-3.4,5.9-3.9,9.4h6.7
						C402.1,296.2,402.8,294.6,403.7,293.2L403.7,293.2z M401.8,302.7h-6.7c0.4,3.5,1.8,6.7,3.9,9.4l4.7-4.7
						C402.8,305.9,402.1,304.4,401.8,302.7L401.8,302.7z M407.1,310.7l-4.7,4.7c2.7,2.1,5.9,3.4,9.4,3.9v-6.7
						C410.1,312.3,408.5,311.6,407.1,310.7L407.1,310.7z M416.6,312.6v6.7c3.5-0.4,6.7-1.8,9.4-3.9l-4.7-4.7
						C419.8,311.6,418.3,312.3,416.6,312.6L416.6,312.6z M424.6,307.3l4.7,4.7c2.1-2.7,3.5-5.9,3.9-9.4h-6.7
						C426.2,304.4,425.6,305.9,424.6,307.3L424.6,307.3z M426.5,297.9h6.7c-0.4-3.5-1.8-6.7-3.9-9.4l-4.7,4.7
						C425.6,294.6,426.2,296.2,426.5,297.9L426.5,297.9z M421.2,289.8l4.7-4.7c-2.7-2.1-5.9-3.5-9.4-3.9v6.7
						C418.3,288.2,419.8,288.9,421.2,289.8z"/>
					<path class="st8" d="M414.2,270.7c16.3,0,29.6,13.2,29.6,29.6c0,16.3-13.2,29.6-29.6,29.6c-16.3,0-29.6-13.2-29.6-29.6
						C384.6,283.9,397.8,270.7,414.2,270.7L414.2,270.7z M414.2,275.3c-13.8,0-24.9,11.2-24.9,24.9c0,13.8,11.2,24.9,24.9,24.9
						c13.8,0,24.9-11.2,24.9-24.9C439.1,286.5,427.9,275.3,414.2,275.3z"/>
					<path class="st8" d="M414.2,294.7c3.1,0,5.6,2.5,5.6,5.6c0,3.1-2.5,5.6-5.6,5.6c-3.1,0-5.6-2.5-5.6-5.6
						C408.6,297.2,411.1,294.7,414.2,294.7z"/>
				</g>
				<g>
					<path class="st6" d="M164.1,246.7c29.6,0,53.6,24,53.6,53.6c0,29.6-24,53.6-53.6,53.6c-29.6,0-53.6-24-53.6-53.6
						C110.5,270.7,134.5,246.7,164.1,246.7L164.1,246.7z M164.1,267.3c-18.2,0-32.9,14.7-32.9,32.9c0,18.2,14.7,32.9,32.9,32.9
						c18.2,0,32.9-14.7,32.9-32.9C197,282.1,182.3,267.3,164.1,267.3z"/>
					<path class="st7" d="M164.1,267.3c18.2,0,32.9,14.7,32.9,32.9c0,18.2-14.7,32.9-32.9,32.9c-18.2,0-32.9-14.7-32.9-32.9
						C131.2,282.1,145.9,267.3,164.1,267.3L164.1,267.3z M152.3,285.1l4.7,4.7c1.4-0.9,3-1.6,4.6-1.9v-6.7
						C158.2,281.6,155,283,152.3,285.1L152.3,285.1z M153.6,293.2l-4.7-4.7c-2.1,2.7-3.4,5.9-3.9,9.4h6.7
						C152,296.2,152.7,294.6,153.6,293.2L153.6,293.2z M151.7,302.7H145c0.4,3.5,1.8,6.7,3.9,9.4l4.7-4.7
						C152.7,305.9,152,304.4,151.7,302.7L151.7,302.7z M157,310.7l-4.7,4.7c2.7,2.1,5.9,3.4,9.4,3.9v-6.7
						C160,312.3,158.4,311.6,157,310.7L157,310.7z M166.5,312.6v6.7c3.5-0.4,6.7-1.8,9.4-3.9l-4.7-4.7
						C169.8,311.6,168.2,312.3,166.5,312.6L166.5,312.6z M174.5,307.3l4.7,4.7c2.1-2.7,3.5-5.9,3.9-9.4h-6.7
						C176.1,304.4,175.5,305.9,174.5,307.3L174.5,307.3z M176.5,297.9h6.7c-0.4-3.5-1.8-6.7-3.9-9.4l-4.7,4.7
						C175.5,294.6,176.1,296.2,176.5,297.9L176.5,297.9z M171.1,289.8l4.7-4.7c-2.7-2.1-5.9-3.5-9.4-3.9v6.7
						C168.2,288.2,169.8,288.9,171.1,289.8z"/>
					<path class="st8" d="M164.1,270.7c16.3,0,29.6,13.2,29.6,29.6c0,16.3-13.2,29.6-29.6,29.6c-16.3,0-29.6-13.2-29.6-29.6
						C134.5,283.9,147.8,270.7,164.1,270.7L164.1,270.7z M164.1,275.3c-13.8,0-24.9,11.2-24.9,24.9c0,13.8,11.2,24.9,24.9,24.9
						c13.8,0,24.9-11.2,24.9-24.9C189,286.5,177.8,275.3,164.1,275.3z"/>
					<path class="st8" d="M164.1,294.7c3.1,0,5.6,2.5,5.6,5.6c0,3.1-2.5,5.6-5.6,5.6c-3.1,0-5.6-2.5-5.6-5.6
						C158.5,297.2,161,294.7,164.1,294.7z"/>
				</g>
				<g>
					<path class="st6" d="M54.6,246.7c29.6,0,53.6,24,53.6,53.6c0,29.6-24,53.6-53.6,53.6C25,353.8,1,329.8,1,300.3
						C1,270.7,25,246.7,54.6,246.7L54.6,246.7z M54.6,267.3c-18.2,0-32.9,14.7-32.9,32.9c0,18.2,14.7,32.9,32.9,32.9
						s32.9-14.7,32.9-32.9C87.5,282.1,72.7,267.3,54.6,267.3z"/>
					<path class="st7" d="M54.6,267.3c18.2,0,32.9,14.7,32.9,32.9c0,18.2-14.7,32.9-32.9,32.9s-32.9-14.7-32.9-32.9
						C21.6,282.1,36.4,267.3,54.6,267.3L54.6,267.3z M42.8,285.1l4.7,4.7c1.4-0.9,3-1.6,4.6-1.9v-6.7
						C48.6,281.6,45.4,283,42.8,285.1L42.8,285.1z M44.1,293.2l-4.7-4.7c-2.1,2.7-3.4,5.9-3.9,9.4h6.7
						C42.5,296.2,43.2,294.6,44.1,293.2L44.1,293.2z M42.2,302.7h-6.7c0.4,3.5,1.8,6.7,3.9,9.4l4.7-4.7
						C43.2,305.9,42.5,304.4,42.2,302.7L42.2,302.7z M47.5,310.7l-4.7,4.7c2.7,2.1,5.9,3.4,9.4,3.9v-6.7
						C50.5,312.3,48.9,311.6,47.5,310.7L47.5,310.7z M57,312.6v6.7c3.5-0.4,6.7-1.8,9.4-3.9l-4.7-4.7
						C60.2,311.6,58.7,312.3,57,312.6L57,312.6z M65,307.3l4.7,4.7c2.1-2.7,3.5-5.9,3.9-9.4h-6.7C66.6,304.4,65.9,305.9,65,307.3
						L65,307.3z M66.9,297.9h6.7c-0.4-3.5-1.8-6.7-3.9-9.4l-4.7,4.7C65.9,294.6,66.6,296.2,66.9,297.9L66.9,297.9z M61.6,289.8
						l4.7-4.7c-2.7-2.1-5.9-3.5-9.4-3.9v6.7C58.7,288.2,60.2,288.9,61.6,289.8z"/>
					<path class="st8" d="M54.6,270.7c16.3,0,29.6,13.2,29.6,29.6c0,16.3-13.2,29.6-29.6,29.6c-16.3,0-29.6-13.2-29.6-29.6
						C25,283.9,38.2,270.7,54.6,270.7L54.6,270.7z M54.6,275.3c-13.8,0-24.9,11.2-24.9,24.9c0,13.8,11.2,24.9,24.9,24.9
						c13.8,0,24.9-11.2,24.9-24.9C79.5,286.5,68.3,275.3,54.6,275.3z"/>
					<path class="st8" d="M54.6,294.7c3.1,0,5.6,2.5,5.6,5.6c0,3.1-2.5,5.6-5.6,5.6c-3.1,0-5.6-2.5-5.6-5.6
						C49,297.2,51.5,294.7,54.6,294.7z"/>
				</g>
			</g>
			<g>
				<defs>
					<path id="SVGID_3_" d="M338.5,55.1V119c0,3.7,3,6.7,6.7,6.7h59.8c1.9,0,3.5,0.7,4.8,2l15.6,16c1.3,1.3,2.9,2,4.8,2H469
						c2.3,0,4.3-1.1,5.6-3c1.3-1.9,1.5-4.2,0.6-6.3L440,52.5c-1.1-2.6-3.4-4.1-6.2-4.1h-88.6C341.6,48.4,338.5,51.4,338.5,55.1z"/>
				</defs>
				<clipPath id="SVGID_1_">
					<use xlink:href="#SVGID_3_"  style="overflow:visible;"/>
				</clipPath>
				<g class="st9">
					<path class="st10" d="M405.9,141.8c0-1.3-0.5-2.5-0.9-3.7c-1-2.6-2-5.3-2.9-7.9c-0.3-0.8-0.6-1.7-1-2.5
						c-0.4-1.1-0.9-2.2-1.4-3.3c-0.2-0.3-0.3-0.7-0.5-1c-0.7-1.6-1.4-3.2-2.1-4.7c-0.2-0.5-0.5-1.1-0.9-1.4
						c-0.8-0.6-1.9-0.4-2.8-0.3c-4.6,0.5-9.3-0.9-12.8-3.9c-0.1,5.7,1.4,11.4,3.9,16.5c2,4.3,4.7,8.2,7.9,11.7
						c2.8,3,5.1,4.5,9.1,4.6C404,145.8,406,144.6,405.9,141.8z"/>
					<path class="st11" d="M408.6,83.3c0.4,2.4,1.2,4.7,1.6,7.1c0.8,4.5,0.2,9.2-1.6,13.3c-1.4,3.2-3.8,6.3-7.2,7.4
						c-1.8,0.6-3.7,0.6-5.4,1.1c-3.6,0.9-6.6,3.7-7.8,7.2c-5.6-2.1-10.8-5.2-15.4-9.1c1.7-8.9,1-18.3-1.9-26.9
						c-0.4-1.1-0.8-2.4-0.1-3.4c0.4-0.6,1.1-0.9,1.7-1.2c10.9-4.6,23.2-5.6,34.7-2.8c1.7,0.4,2.1,0.6,1.6,2.3
						C408.3,79.9,408.4,81.6,408.6,83.3z"/>
					<path class="st12" d="M409.4,86c2.2,2.3,3.5,5.4,3.5,8.6c0,3.9-1.7,7.5-3.4,11c-0.8,1.7-1.7,3.5-3,4.9
						c-1.3,1.4-3.2,2.4-5.1,2.3c-2.2-0.1-4.1-1.8-5.7-3.3c-1.7-1.6-3.3-3.1-5-4.7c-0.7-0.6-1.3-1.3-1.5-2.2c0.3,0.3,0.8,0.2,1-0.1
						c0.2-0.3,0.3-0.7,0.3-1.1c0.2-2.4,0.4-4.8,0.5-7.2c0-0.8-0.2-2.6,0.4-3.2c0.5-0.5,2.5-0.7,3.2-0.9
						C399.7,88.7,404.5,87.3,409.4,86z"/>
					<path class="st12" d="M372.9,95.2c-0.4,0-0.6,0.6-0.2,0.8c0.2,0.1,0.5,0,0.5-0.3c-0.1-0.7-0.3-1.3-0.8-1.9
						c-0.4-0.5-1.1-1.2-1.7-0.7c-0.5,0.5-0.4,1.3-0.1,1.9c0.4,0.7,1,1.2,1.7,1.6c0.3,0.2,0.6-0.2,0.4-0.5c-0.5-0.5-1.2-0.3-1.6,0.2
						c-0.2,0.3-0.3,0.6-0.4,1c-0.1,0.3-0.1,0.6,0,0.9c0.2,0.6,1.1,0.6,1.5,0.3c0.3-0.2,0.4-0.5,0.6-0.8c0.2-0.4,0.4-0.8,0.7-1.2
						c0.2-0.3-0.3-0.7-0.5-0.3c-0.2,0.4-0.5,0.9-0.7,1.3c-0.1,0.2-0.5,0.9-0.9,0.7c-0.3-0.2,0-0.9,0.1-1.1c0.1-0.3,0.5-0.8,0.8-0.4
						c0.1-0.2,0.2-0.3,0.4-0.5c-0.4-0.3-0.9-0.6-1.2-1c-0.3-0.3-0.6-1-0.3-1.4c0.2-0.2,0.4,0,0.6,0.2c0.2,0.2,0.3,0.3,0.5,0.5
						c0.3,0.4,0.5,0.9,0.5,1.3c0.2-0.1,0.3-0.2,0.5-0.3c0,0.1-0.1,0.2-0.1,0.3C373.3,95.7,373.3,95.1,372.9,95.2z"/>
					<path class="st13" d="M391.6,97.5c-0.2,1.6-0.4,3.3,0.2,4.8c0.6,1.6,2.1,2.7,3.4,3.7c1.3,1,2.6,2,3.9,3c1,0.8,2,1.5,3.3,1.7
						c1.2,0.1,2.7-0.7,2.7-1.9c0-1-0.7-1.8-1.5-2.4c-1.2-1.1-2.4-2.2-3.6-3.3c2.8,0,5.6,0,8.4,0c0.1-1.3,0.1-2.7,0.2-4
						c-2.3-0.2-4.6-0.3-6.8-0.5c2.2-0.4,4.3-0.9,6.5-1.3c0.6-0.1,1.2-0.2,1.6-0.6c0.5-0.5,0.7-1.3,0.6-2c-0.1-0.7-0.4-1.4-0.7-2
						c-2.3,0.6-4.6,1.3-6.8,1.9c-0.3,0.1-0.6,0.2-0.9,0.1c-0.3-0.1-0.5-0.4-0.4-0.7c1.9-1,3.8-2,5.6-2.9c0.6-0.3,1.3-0.7,1.6-1.3
						c0.3-0.6,0.1-1.5-0.5-1.7c-0.7-0.2-2.3,0.4-3,0.6c-1.1,0.2-2.1,0.4-3.2,0.7c-2.1,0.5-4.1,0.9-6.1,1.5c-1.3,0.3-3.1,0.4-3.8,1.7
						C391.7,93.7,391.8,95.9,391.6,97.5z"/>
					<path class="st14" d="M394.7,76.4c7.5-0.1,14.9,0.7,22.3,1.6c1.2,0.1,1.8-1.4,0.9-2.1c-0.8-0.6-1.7-1.1-2.5-1.6
						c-1.8-0.9-3.8-1.8-5.1-3.4c-1.5-1.8-1.9-4.1-2.9-6.2c-1.8-3.8-5.5-6.4-9.6-7.5c-4-1.1-8.3-0.9-12.4-0.1
						c-5.2,1-10.4,3.1-14.1,6.9c-3.6,3.9-5.4,9.8-3.2,14.7c0.3,0.7,0.7,1.4,1.3,2.1c0.8,0.9,1.1,0.5,2.1,0.1
						c1.8-0.7,3.5-1.4,5.4-1.9c3.7-1.1,7.5-1.8,11.3-2.1C390.3,76.5,392.5,76.4,394.7,76.4z"/>
					<path class="st15" d="M408.6,71.3c-1.9-3.7-4-7.4-7.1-10.1c-3.1-2.7-7.4-4.4-11.5-3.5c-4.6,1-8.2,5.1-9.4,9.7
						c-0.4,1.3-0.6,2.8-1.7,3.6c-1.5,1.2-3.9,0.6-5.2,2c-0.9,0.9-1,2.5-1.9,3.5c-0.4,0.5-1,0.8-1.6,1.1c-0.5,0.3-1.1,0.8-1.2,1.4
						c-0.8,3.1,4.8,0,5.7-0.4c2.6-1,5.3-2,8-2.8c5.4-1.7,10.9-2.9,16.5-3.6c1.6-0.2,3.2-0.4,4.8-0.5C404.4,71.6,408.4,71,408.6,71.3
						z"/>
					<path class="st16" d="M384,88.7c-0.8,0.1-1.6,0.2-2.3,0.3c0-1.6-0.2-3.2-0.8-4.7c-0.7-1.4-2.1-2.7-3.6-2.7
						c-1.7-0.1-3.2,1.2-3.9,2.7c-0.7,1.5-0.6,3.3-0.3,5c0.3,1.7,0.9,3.3,1.2,4.9c0.3,1.7,0.3,3.4-0.3,5c0-2.5-1.1-4.9-2.9-6.5
						c0.3,0.1,0.5-0.4,0.4-0.8c-0.1-0.3-0.5-0.5-0.7-0.8c-0.5-0.6-0.6-1.5-0.7-2.3c-0.1-1.3-0.2-2.6-0.3-3.9c-0.1-0.9-0.2-2,0.3-2.8
						c0.5-1,1.6-1.5,2.5-1.9c3.5-1.5,7.1-2.6,10.8-3.2c0.9-0.2,1.9-0.3,2.8-0.4c0.9-0.1,1.5-0.3,1.2,0.7c-0.4,1.7-1.5,3.4-2.1,5.2
						C384.5,84.5,384.1,86.6,384,88.7z"/>
					<path class="st17" d="M401,82.6c0.8,0.1,1.6,0.3,2.5,0.4c0.5,0.1,1.2,0.1,1.4-0.5c0.1-0.4,0-1-0.4-1.1
						c-0.5-0.1-1.3,0.2-1.7,0.4C402.4,82,401.3,82.7,401,82.6z"/>
					<path class="st16" d="M406.6,79.1c-0.5-0.5-1.3-0.7-1.9-0.9c-0.6-0.1-1.3-0.2-1.9,0c-1.2,0.4-2.3,1.1-3.1,2.1c0,0,0,0,0,0
						c0.8-0.9,1.9-1.4,3.1-1.4c0.6,0,1.1-0.1,1.7,0c0.3,0,0.6,0.1,0.9,0.2c0.3,0.1,0.6,0.3,1,0.4C406.6,79.7,406.8,79.3,406.6,79.1z
						"/>
					<path class="st16" d="M405.9,81c-0.3,0-0.6,0.1-0.9,0.1c0.4-0.2,0.6-0.6,0.6-1.1c0-0.2-0.2-0.2-0.3,0c0,0,0,0,0,0.1
						c0,0.4-0.3,0.8-0.7,1c0,0,0,0.1,0,0.1l0,0c-0.5,0.1-0.9,0.2-1.3,0.4c-0.9,0.3-1.7,0.6-2.5,1c-0.1,0.1-0.1,0.3,0,0.3
						c0.3,0.2,0.7,0.2,1.1,0.2c0.5,0,0.9,0.1,1.4,0.1c0.4,0,0.8,0,1.2,0.1c0,0,0.1,0.1,0.1,0l0,0l0,0c0.2,0,0.4,0.1,0.6,0.2
						c0.1,0.1,0.2,0.3,0.4,0.4c0,0,0.1,0,0.1,0c0.1-0.3-0.2-0.6-0.4-0.7c-0.1-0.1-0.3-0.1-0.4-0.2c0.2-0.5,0.3-1,0.1-1.5
						c0.3-0.1,0.6-0.2,1-0.3C406,81.1,406,80.9,405.9,81z M404.5,81.5c0,0.2,0,0.3,0,0.5c0,0.1,0,0.2-0.1,0.3
						c-0.2,0-0.3-0.2-0.3-0.4c0.1-0.1,0.1-0.2,0.2-0.3C404.4,81.6,404.5,81.5,404.5,81.5z M402.5,82.8c-0.4,0-0.8,0-1.2-0.1
						c0.7-0.3,1.4-0.6,2.1-0.8c0.1,0,0.1,0,0.2-0.1c-0.1,0.3-0.2,0.6,0,0.9c0,0.1,0.1,0.1,0.1,0.1C403.3,82.8,402.9,82.8,402.5,82.8
						z"/>
					<path class="st12" d="M391.5,91c-0.1,0.1-0.2,0.3-0.3,0.4c-3.3-1.7-6.6-3.3-9.9-5c-0.3-0.1-1-0.6-0.7-1
						c0.3-0.3,1.1,0.3,1.4,0.4c1.1,0.5,2.2,1.1,3.2,1.6C385.9,87.8,391.6,90.9,391.5,91z"/>
					<path class="st12" d="M373.1,96.2c4.5,1.8,9.1,3.7,13.6,5.5c1.3,0.5,2.6,1,3.8,1.5c0.2,0.1,0.5-0.1,0.6-0.3
						c0.1-0.3-0.1-0.5-0.3-0.6c-4.5-1.8-9.1-3.7-13.6-5.5c-1.3-0.5-2.6-1-3.8-1.5c-0.2-0.1-0.5,0.1-0.6,0.3
						C372.7,95.9,372.8,96.2,373.1,96.2z"/>
					<path class="st18" d="M378.7,84.5c-0.4-0.8-1.4-1.1-2.3-0.9c-0.9,0.3-1.5,1-1.8,1.8c-0.3,0.8-0.3,1.8-0.2,2.6
						c0.2,1.8,0.9,3.6,1.9,5.1c0.4,0.6,1,1.2,1.7,1c1.6-0.5,0.8-3.5,0.4-4.6C377.7,87.9,379.5,86.1,378.7,84.5z"/>
					<path class="st14" d="M391.1,115.9c0,1.5,0.6,2.8,1.2,4.2c0.6,1.3,1.2,2.7,1.2,4.2c0,1.5-0.6,3-2,3.7c1.5,0,3,0,4.6,0
						c0.7,6.1,1.4,12.2,2.2,18.3c-12.3-0.5-24.7-1-37-1.5c-0.4-4.7-1.9-9.2-2.4-13.9c-0.5-4.7,0.1-9.8,3.3-13.3
						c1.9-2,4.6-3.3,6.3-5.5c1.2-1.5,1.8-3.3,2.4-5.1c0.2-0.7,0.7-3.4,1.4-3.7c0.9-0.4,1.7,1.1,2.1,1.7c1.4,1.8,3,3.4,4.8,4.8
						c1.8,1.4,3.7,2.7,5.7,3.7C385.3,113.7,391.1,115.8,391.1,115.9z"/>
					<path class="st15" d="M360.9,128.6c0.4,5.1,1.7,10.1,3.8,14.8c6.6,1.1,13.4,1.3,20.1,0.6c0-4.6-0.6-9.3-2.3-13.6
						c-0.7-1.7-1.5-3.3-2.3-4.8c-0.7-1.4-1.4-2.8-2.4-4c-2.2-2.8-5.8-4.4-9.4-4.4c-3.3,0-5.2,1.1-6.7,4.1
						C360.7,123.5,360.7,126.1,360.9,128.6z"/>
					<path class="st19" d="M445.2,161.7L445.2,161.7c-1.5-0.5-2.3-2.2-1.8-3.7l9.2-26.5c0.5-1.5,2.2-2.3,3.7-1.8l0,0
						c1.5,0.5,2.3,2.2,1.8,3.7l-9.2,26.5C448.4,161.5,446.7,162.3,445.2,161.7z"/>
				</g>
			</g>
			<path class="st20" d="M344.7,108l112.3,0.2c2.8,0,5.1,1.6,6.2,4.1l10.2,24.3c0.9,2.2,2.6,4.2,1.3,6.1c-1.3,1.9-3.3,3-5.6,3h-38.7
				c-1.9,0-3.5-0.7-4.8-2l-15.6-16c-1.3-1.3-2.9-2-4.8-2h-59.8c-1.6,0-3-0.5-4.2-1.4v-12.7C341.1,109.6,342.7,108,344.7,108z"/>
		</g>
	</g>
	<g>
		<rect x="30.5" y="61" class="st21" width="256.5" height="126.8"/>
		<rect x="33.4" y="112.4" class="st22" width="250.1" height="58.4"/>
		<path class="st23" d="M50.7,50.2h13.7c1.8,0,3.2,1.4,3.2,3.2v16.4c0,1.8-1.4,3.2-3.2,3.2H50.7c-1.8,0-3.2-1.4-3.2-3.2V53.4
			C47.5,51.6,49,50.2,50.7,50.2"/>
		<path class="st23" d="M252.5,50.2h13.7c1.8,0,3.2,1.4,3.2,3.2v16.4c0,1.8-1.4,3.2-3.2,3.2h-13.7c-1.8,0-3.2-1.4-3.2-3.2V53.4
			C249.3,51.6,250.8,50.2,252.5,50.2"/>
		<rect x="33.4" y="170.8" class="st24" width="250.1" height="12.1"/>
		<path class="st25" d="M254.3,175.9l0.7,1.8h-1.5L254.3,175.9z M255.7,179.4h1l-2.1-4.9h-0.6l-2.1,4.9h1l0.4-0.9h2.1L255.7,179.4z
			 M248.5,179.4h1v-4.9h-1V179.4z M244.9,176.9v1.4c-0.2,0.1-0.5,0.2-0.9,0.2c-0.9,0-1.7-0.7-1.7-1.6c0-1,0.7-1.6,1.7-1.6
			c0.7,0,1.1,0.2,1.2,0.3l0.4-0.8c-0.2-0.1-0.7-0.5-1.7-0.5c-1.5,0-2.6,1.1-2.6,2.5c0,1.4,1.1,2.5,2.6,2.5c1,0,1.6-0.4,1.9-0.6v-1.9
			H244.9z M236.9,175.9l0.7,1.8h-1.5L236.9,175.9z M238.4,179.4h1l-2.1-4.9h-0.6l-2.1,4.9h1l0.4-0.9h2.1L238.4,179.4z M232.2,179.4
			l-0.1-4.9h-0.6l-1.9,3.2l-1.8-3.2h-0.6l-0.2,4.9h0.9l0-2.9l1.3,2.4h0.6l1.3-2.4l0,2.9H232.2z M220.8,175.9l0.7,1.8h-1.5
			L220.8,175.9z M222.3,179.4h1l-2.1-4.9h-0.6l-2.1,4.9h1l0.4-0.9h2.1L222.3,179.4z M213.9,178.5H213v-3.2h0.9c1,0,1.6,0.6,1.6,1.6
			C215.5,177.9,214.9,178.5,213.9,178.5z M213.9,174.5H212v4.9h1.9c1.5,0,2.6-1,2.6-2.4C216.5,175.5,215.4,174.5,213.9,174.5z
			 M205.8,175.9l0.7,1.8h-1.5L205.8,175.9z M207.2,179.4h1l-2.1-4.9h-0.6l-2.1,4.9h1l0.4-0.9h2.1L207.2,179.4z M200.1,174.5v2h-2.5
			v-2h-1v4.9h1v-2h2.5v2h1v-4.9H200.1z M191.8,178.5v-4h-1v4.9h3.3v-0.8H191.8z M186.9,179.4h1v-4.9h-1V179.4z M180.7,175.9l0.7,1.8
			H180L180.7,175.9z M182.2,179.4h1l-2.1-4.9h-0.6l-2.1,4.9h1l0.4-0.9h2.1L182.2,179.4z M175,174.5v3.2l-2.9-3.2h-0.5v4.9h0.9v-3.2
			l2.9,3.3h0.5v-4.9H175z M165.5,179.4c1,0,1.7-0.6,1.7-1.5c0-0.9-0.6-1.3-1.5-1.5c-0.7-0.2-1-0.3-1-0.7c0-0.4,0.3-0.5,0.8-0.5
			c0.5,0,0.9,0.1,1.2,0.4l0.4-0.7c-0.4-0.3-0.9-0.5-1.6-0.5c-1,0-1.8,0.6-1.8,1.4c0,0.9,0.6,1.2,1.5,1.4c0.7,0.2,1,0.4,1,0.8
			c0,0.4-0.3,0.6-0.8,0.6c-0.5,0-1-0.2-1.4-0.5l-0.5,0.8C164.1,179.2,164.7,179.4,165.5,179.4z M159.3,175.9l0.7,1.8h-1.5
			L159.3,175.9z M160.7,179.4h1l-2.1-4.9h-0.6l-2.1,4.9h1l0.4-0.9h2.1L160.7,179.4z M153.5,179.4h1v-4.9h-1V179.4z M148,175.3h0.7
			c0.6,0,1.1,0.3,1.1,0.9c0,0.5-0.4,0.9-1.1,0.9H148V175.3z M151,179.4l-1.1-1.6c0.6-0.3,1-0.8,1-1.5c0-1.1-0.8-1.8-2-1.8h-1.7v4.9
			h1V178h0.7h0.1l0.9,1.4H151z M142,178.5v-1.2h2.1v-0.8H142v-1.1h2.4v-0.8H141v4.9h3.4v-0.8H142z M138.6,174.5h-4.2v0.8h1.6v4h1v-4
			h1.6V174.5z M130.6,175.9l0.7,1.8h-1.5L130.6,175.9z M132,179.4h1l-2.1-4.9h-0.6l-2.1,4.9h1l0.4-0.9h2.1L132,179.4z M124.3,178.6
			h-1v-1.3h1c0.6,0,0.9,0.3,0.9,0.6C125.2,178.3,124.9,178.6,124.3,178.6z M125,175.9c0,0.4-0.3,0.6-0.8,0.6h-0.9v-1.2h0.9
			C124.8,175.3,125,175.5,125,175.9z M125.2,176.8c0.4-0.2,0.7-0.5,0.7-1.1c0-0.7-0.5-1.3-1.8-1.3h-1.8v4.9h1.9
			c1.3,0,1.8-0.5,1.8-1.4C126.1,177.4,125.8,177,125.2,176.8z M115.6,178.5v-1.2h2.1v-0.8h-2.1v-1.1h2.4v-0.8h-3.3v4.9h3.4v-0.8
			H115.6z M109.3,178.5h-0.9v-3.2h0.9c1,0,1.6,0.6,1.6,1.6C111,177.9,110.4,178.5,109.3,178.5z M109.4,174.5h-1.9v4.9h1.9
			c1.5,0,2.6-1,2.6-2.4C111.9,175.5,110.9,174.5,109.4,174.5z M101.3,175.9l0.7,1.8h-1.5L101.3,175.9z M102.7,179.4h1l-2.1-4.9H101
			l-2.1,4.9h1l0.4-0.9h2.1L102.7,179.4z M94.9,179.4c1.1,0,1.7-0.7,1.7-1.8v-3.2h-1v3.2c0,0.5-0.3,0.8-0.8,0.8
			c-0.3,0-0.5-0.1-0.7-0.1l-0.4,0.8C93.9,179.2,94.2,179.4,94.9,179.4z M89.4,178.6c-0.9,0-1.6-0.7-1.6-1.6c0-0.9,0.7-1.6,1.6-1.6
			c0.9,0,1.6,0.7,1.6,1.6C91,177.9,90.3,178.6,89.4,178.6z M89.4,179.4c1.5,0,2.5-1.1,2.5-2.5c0-1.4-1.1-2.5-2.5-2.5
			c-1.5,0-2.6,1.1-2.6,2.5C86.8,178.3,87.9,179.4,89.4,179.4z M82.5,178.5v-4h-1v4.9h3.3v-0.8H82.5z M75.4,175.9l0.7,1.8h-1.5
			L75.4,175.9z M76.8,179.4h1l-2.1-4.9h-0.6l-2.1,4.9h1l0.4-0.9h2.1L76.8,179.4z M68.6,179.4c1.3,0,2.1-0.7,2.1-2.2v-2.8h-0.9v2.9
			c0,0.7-0.4,1.2-1.2,1.2c-0.8,0-1.2-0.6-1.2-1.2v-2.9h-1v2.8C66.5,178.7,67.4,179.4,68.6,179.4z M62.2,179.4c1,0,1.7-0.6,1.7-1.5
			c0-0.9-0.6-1.3-1.5-1.5c-0.7-0.2-1-0.3-1-0.7c0-0.4,0.3-0.5,0.8-0.5c0.5,0,0.9,0.1,1.2,0.4l0.4-0.7c-0.4-0.3-0.9-0.5-1.6-0.5
			c-1,0-1.8,0.6-1.8,1.4c0,0.9,0.6,1.2,1.5,1.4c0.7,0.2,1,0.4,1,0.8c0,0.4-0.3,0.6-0.8,0.6c-0.5,0-1-0.2-1.4-0.5l-0.5,0.8
			C60.8,179.2,61.4,179.4,62.2,179.4z"/>
		<rect x="33.4" y="64.4" class="st24" width="250.1" height="48"/>
		<path class="st25" d="M257.8,106.4c7.5,0,12-4.3,12-10.9c0-7.2-4.8-9.2-9.5-10.9c-4.4-1.5-6.3-2-6.3-4.1c0-2.1,1.9-2.8,4.3-2.8
			c3,0,5.8,1.1,8,2.8l3.5-6.3c-2.7-2.2-6.7-3.7-11.4-3.7c-7.5,0-12.4,4.1-12.4,10.7c0,6.5,4.7,8.5,9.9,10.3c4.5,1.5,6.1,2.3,6.1,4.6
			c0,2.3-1.8,3.1-3.9,3.1c-3.4,0-6.5-1.1-9.7-3.9l-3.8,6.6C247.9,104.7,251.9,106.4,257.8,106.4 M226.9,82.8l3.9,9.9H223L226.9,82.8
			z M235.5,106h8.3l-14.4-35.1h-4.9L209.9,106h8.3l2.4-6.2h12.6L235.5,106z M198.8,106h7.8V70.8h-7.8V106z M175.5,78.1h3.7
			c3.8,0,6.1,2.3,6.1,5.7c0,3.3-2.4,5.4-6.1,5.4h-3.8V78.1z M194.6,106l-7.3-11.2c3.9-2.1,6.2-5.9,6.2-10.8c0-7.7-5.4-13-13.6-13
			h-12.2V106h7.8v-9.4h4h0l6,9.4H194.6z M146.2,98.6V92h13.4v-7.4h-13.4v-6.3h15.2v-7.4h-23V106h23.2v-7.3H146.2z M134.3,70.8h-29.2
			v7.4h10.7V106h7.8V78.2h10.7V70.8z M91.5,82.8l3.9,9.9h-7.7L91.5,82.8z M100.1,106h8.3L94,70.8h-4.9L74.5,106h8.3l2.4-6.2h12.6
			L100.1,106z M60.6,99.1h-6v-7.5h5.8c3.7,0,5.4,1.3,5.4,3.8C65.8,97.6,64.2,99.1,60.6,99.1z M64.7,81.4c0,2.3-1.4,3.6-4.8,3.6h-5.3
			v-7.3h5.3C63.3,77.7,64.7,79.1,64.7,81.4z M67.4,87.4c2.9-1.1,4.8-3.8,4.8-7.6c0-5-3.5-9-12.3-9H47V106h13.6
			c9.1,0,12.9-3.8,12.9-10.1C73.4,91.8,71.3,88.5,67.4,87.4z"/>
		<path class="st26" d="M257.8,133.5l4.7,11.3h-9.4L257.8,133.5z M268.4,159.9h10.1l-17.6-40h-6l-17.8,40h10.1l2.9-7.1h15.4
			L268.4,159.9z M221.9,140.7h-4.5v-12.4h4.5c5,0,7.5,3.3,7.5,6.3C229.4,137.5,227,140.7,221.9,140.7z M222.5,119.9h-14.6v40h9.6
			v-10.7l4.6-0.1c10.3-0.1,17.1-5.7,17.1-14.3C239.2,125.9,232.5,119.9,222.5,119.9z M189.4,159.9h9.6v-40h-9.6V159.9z M160.9,128.2
			h4.6c4.6,0,7.5,2.7,7.5,6.5c0,3.8-3,6.1-7.5,6.1h-4.6V128.2z M184.3,159.9l-8.9-12.8c4.8-2.4,7.6-6.8,7.6-12.4
			c0-8.8-6.6-14.9-16.7-14.9h-14.9v40h9.6v-10.7h4.9h0.1l7.3,10.7H184.3z M66.9,128.3v-8.4H38.8v40h9.6v-12.6h15.9v-8.4H48.4v-10.5
			H66.9z M82.7,151.5v-31.6h-9.6v40h27.8v-8.4H82.7z"/>
		<path class="st27" d="M126.6,146.9l-14.4,5.9l10.5-36.1c-11.8,0.5-21.2,10.2-21.2,22.1c0,11.7,9,21.2,20.4,22.1L126.6,146.9z"/>
		<path class="st27" d="M135.1,119.9v-3.7l-12.6,27.3l12.8-5L119,170.3l7-9.3c11.2-1.1,20-10.6,20-22.1
			C145.9,130.8,141.6,123.7,135.1,119.9"/>
		<polygon class="st25" points="56.8,62.5 56.8,58.7 53,58.7 53,57.1 56.8,57.1 56.8,53.3 58.4,53.3 58.4,57.1 62.2,57.1 62.2,58.7 
			58.4,58.7 58.4,62.5 		"/>
		<rect x="255.7" y="56.3" class="st25" width="7.4" height="2.4"/>
		<rect x="21.6" y="42.8" class="st28" width="274.2" height="147.4"/>
	</g>
</g>
</svg>
