<?xml version="1.0" encoding="utf-8"?>
<!-- Generator: Adobe Illustrator 24.1.2, SVG Export Plug-In . SVG Version: 6.00 Build 0)  -->
<svg version="1.1" id="Layer_1" xmlns="http://www.w3.org/2000/svg" xmlns:xlink="http://www.w3.org/1999/xlink" x="0px" y="0px"
	 viewBox="0 0 500 281" style="enable-background:new 0 0 500 281;" xml:space="preserve">
<style type="text/css">
	.st0{fill:#F14543;}
	.st1{fill:#CF595C;}
	.st2{opacity:0.55;fill:#EA7E72;}
	.st3{fill:#C94854;}
	.st4{fill:#FDF3ED;}
	.st5{fill:#ECA0A4;}
	.st6{fill:#343435;}
	.st7{fill:#C0DEED;}
	.st8{fill:#3B2314;}
	.st9{fill:#FFFFFF;}
	.st10{fill:#DF757B;}
	.st11{fill:#944C52;}
	.st12{fill:#404041;}
	.st13{fill:#231F20;}
	.st14{fill:#1A1A1A;}
	.st15{fill:#E4F5FD;}
	.st16{fill:#B3B3B3;}
	.st17{fill:#4D4D4D;}
	.st18{fill:#2B388F;}
	.st19{fill:#97C5DA;}
	.st20{fill-rule:evenodd;clip-rule:evenodd;fill:#333333;}
	.st21{fill-rule:evenodd;clip-rule:evenodd;fill:#FFF100;}
	.st22{fill-rule:evenodd;clip-rule:evenodd;fill:#6D6E70;}
	.st23{fill-rule:evenodd;clip-rule:evenodd;fill:#EC1C24;}
	.st24{fill:#041018;}
	.st25{fill:#EC1C24;}
	.st26{fill-rule:evenodd;clip-rule:evenodd;fill:none;}
	.st27{fill:url(#SVGID_1_);}
	.st28{fill:url(#SVGID_2_);}
	.st29{fill:url(#SVGID_3_);}
	.st30{fill:url(#SVGID_4_);}
	.st31{fill:url(#SVGID_5_);}
	.st32{fill:url(#SVGID_6_);}
	.st33{fill:url(#SVGID_7_);}
	.st34{fill:url(#SVGID_8_);}
	.st35{fill:url(#SVGID_9_);}
	.st36{fill:url(#SVGID_10_);}
	.st37{fill:url(#SVGID_11_);}
	.st38{fill:url(#SVGID_12_);}
	.st39{fill:url(#SVGID_13_);}
	.st40{filter:url(#Adobe_OpacityMaskFilter);}
	.st41{filter:url(#Adobe_OpacityMaskFilter_1_);}
	.st42{mask:url(#SVGID_14_);fill:url(#SVGID_15_);}
	.st43{opacity:0.7;fill:url(#SVGID_16_);}
	.st44{fill:url(#SVGID_17_);}
	.st45{fill:url(#SVGID_18_);}
	.st46{fill:url(#SVGID_19_);}
	.st47{fill:url(#SVGID_20_);}
	.st48{opacity:0.6;fill:url(#SVGID_21_);}
	.st49{fill:url(#SVGID_22_);}
	.st50{fill:url(#SVGID_23_);}
	.st51{clip-path:url(#SVGID_25_);}
	.st52{fill:url(#SVGID_26_);}
	.st53{fill:url(#SVGID_27_);}
	.st54{fill:url(#SVGID_28_);}
	.st55{fill:url(#SVGID_29_);}
	.st56{fill:url(#SVGID_30_);}
	.st57{fill:url(#SVGID_31_);}
	.st58{fill:url(#SVGID_32_);}
	.st59{fill:url(#SVGID_33_);}
	.st60{fill:url(#SVGID_34_);}
	.st61{fill:url(#SVGID_35_);}
	.st62{clip-path:url(#SVGID_37_);}
	.st63{fill:url(#SVGID_38_);}
	.st64{fill:url(#SVGID_39_);}
	.st65{fill:url(#SVGID_40_);}
	.st66{fill:url(#SVGID_41_);}
	.st67{fill:url(#SVGID_42_);}
	.st68{fill:url(#SVGID_43_);}
	.st69{fill:url(#SVGID_44_);}
	.st70{fill:url(#SVGID_45_);}
	.st71{opacity:0.7;fill:#2C2B2B;}
	.st72{opacity:0.5;fill:#2C2B2B;}
	.st73{fill:url(#SVGID_46_);}
	.st74{opacity:0.7;fill:url(#SVGID_47_);}
	.st75{opacity:0.8;fill:url(#SVGID_48_);}
	.st76{opacity:0.8;fill:url(#SVGID_49_);}
</style>
<g>
	<g>
		<g>
			<g>
				<path class="st0" d="M431.8,31.1c-3.5-21.6-35.2-34.4-70.9-28.7c-35.7,5.7-61.8,27.9-58.3,49.4c2.7,16.8,22.4,28.2,47.8,29.9
					c-1,4.7-4.3,13.9-16.2,20.7c0,0,23.2,1.8,35.3-21.3c1.3-0.2,2.6-0.3,4-0.6C409.1,74.8,435.2,52.6,431.8,31.1z"/>
				<path class="st1" d="M349.5,84.6c-1.7,5-5.7,12.2-15.4,17.8c0,0,18.1,1.4,30.7-14.3C359.5,88.2,354.4,87.3,349.5,84.6z"/>
				<path class="st2" d="M342.5,31.7c21.9,15,75.5,9.1,89.6,3.6c0-1.4-0.1-2.8-0.3-4.2c-3.5-21.6-35.2-34.4-70.9-28.7
					c-14.1,2.3-26.6,7.1-36.4,13.4C331.1,21.1,335.4,26.9,342.5,31.7z"/>
				<g>
					<path class="st3" d="M339,100.4c11.8-6.8,15.2-16,16.2-20.7c-25.4-1.6-45.1-13.1-47.8-29.9c-2.6-16.1,11.4-32.6,33.5-42.2
						c-24.9,9.3-41.2,26.9-38.4,44.2c2.7,16.8,22.4,28.2,47.8,29.9c-1,4.7-4.3,13.9-16.2,20.7c0,0,8.4,0.6,17.7-3.9
						C344.7,100.9,339,100.4,339,100.4z"/>
				</g>
				<g>
					<path class="st4" d="M347.1,37.6c0.1,1.1,0,2.2-0.3,3.2c-0.3,1-0.8,2-1.4,3c-0.6,0.9-1.3,1.8-2.1,2.6s-1.6,1.5-2.4,2.2l6.6-0.5
						l0.2,8.7l-19.5,0.9l-0.6-7.6c0.7-0.3,1.5-0.7,2.2-1.1c0.8-0.4,1.5-0.9,2.3-1.4c0.7-0.5,1.4-1.1,2.1-1.7c0.7-0.6,1.2-1.3,1.7-2
						c0.5-0.7,0.8-1.5,1.1-2.3c0.2-0.8,0.3-1.7,0.3-2.6c0-0.5-0.2-1-0.4-1.4c-0.2-0.4-0.5-0.7-0.9-0.9c-0.4-0.2-0.8-0.4-1.2-0.5
						s-0.9-0.1-1.4-0.1c-0.4,0-0.8,0.1-1.3,0.2c-0.4,0.1-0.8,0.3-1.2,0.5c-0.4,0.2-0.8,0.4-1.1,0.7s-0.7,0.6-0.9,0.9l-2.5-8
						c0.5-0.6,1-1,1.7-1.4c0.6-0.4,1.3-0.7,2-1c0.7-0.3,1.5-0.5,2.2-0.7c0.8-0.2,1.5-0.3,2.2-0.3c1.6-0.1,3.2,0,4.7,0.5
						c1.5,0.5,2.8,1.2,3.9,2.1c1.1,0.9,2.1,2.1,2.8,3.5C346.5,34.5,346.9,36,347.1,37.6z"/>
					<path class="st4" d="M370.8,45.4l-1.8,0.2l0.4,9l-9.3,1.6l-0.3-9.7l-11.1,1.2l1.6-18.5l7.9-0.6l-1.3,12.9l2.7-0.3l-0.5-15.8
						l9-0.7l0.6,15.5l1.6-0.2L370.8,45.4z"/>
					<path class="st4" d="M389.3,25.4c-1.8,5-3.5,10.1-5,15.3c-1.5,5.2-2.8,10.4-4.1,15.6l-8.6-2.6c0.8-2.6,1.6-5.2,2.4-7.8
						c0.8-2.6,1.6-5.2,2.5-7.7c0.9-2.6,1.8-5.1,2.7-7.7c1-2.5,2-5,3.1-7.5L389.3,25.4z"/>
					<path class="st4" d="M411.7,29.1c-1.1,4-2.1,7.7-2.9,11c-0.4,1.4-0.7,2.8-1.1,4.1c-0.4,1.4-0.7,2.6-1,3.7
						c-0.3,1.1-0.6,2.1-0.8,2.8c-0.2,0.8-0.3,1.2-0.4,1.4l-11,0.3l7.9-21.5l-11.3,1.5l-0.7-9l20.6-2L411.7,29.1z"/>
				</g>
			</g>
		</g>
	</g>
	<g>
		<g>
			<path class="st5" d="M465,175.3c-2.6,4.5-5.2,8.9-7.8,13.4c-3.6,6.1-7.1,12.2-10.7,18.3c-1.4,2.4-2.8,4.7-4.6,6.8
				c-2.5,2.9-5.6,5.1-8.6,7.4c-0.2,0.2-0.5,0.3-0.7,0.5c-4.6,3.3-9.6,5.9-14.6,8.3L330.8,286c-5.6,3.4-13,0.8-15.2-5.4l-13.2-37.5
				v-18.5l28.2-3.9l5.5,20.4l1.2,4.4c0.5,1.9,2.7,2.8,4.4,1.8l58-33.2c1.5-1.9,2.7-4,3.9-6.1c2.4-4.5,4.3-9.4,7.1-13.6
				c2.2-3.4,5-6.4,8-9.1c1.5-1.4,3.1-2.7,4.7-4c0.8-0.7,1.6-1.3,2.5-1.9c0.7-0.6,1.4-1.3,2.4-1.3c3,0.1,2.3,4.8,1.5,6.6
				c-1.1,2.5-3,4.4-4.1,6.9c-0.5,1-0.8,2.1-1,3.2c0.8-0.3,1.6-0.7,2.4-1c10.4-4.6,19.2-12.3,26.6-20.9c1.1-1.3,2.5-2.8,4.2-2.6
				c0.5,0.1,1,0.3,1.4,0.6c0.3,0.3,0.6,0.6,0.8,1c0.1-0.1,0.2-0.2,0.3-0.3c0.7-0.6,1.5-1.2,2.5-1.4c0.9-0.3,2-0.1,2.7,0.6
				C466.6,171.9,465.8,173.9,465,175.3z"/>
			<path class="st5" d="M336.2,241.1c-10.6,0.7-27.5-1.5-33.8-2.3v-14.2l28.2-3.9L336.2,241.1z"/>
			<polygon class="st5" points="158.3,336.9 155.4,354.3 193.6,354.3 187,346.5 187,225.9 157.4,225.9 157.5,238.9 			"/>
			<path class="st5" d="M187,225.9v17c-8.4-0.1-21.1-2.3-29.5-4l-0.1-13H187z"/>
			<rect x="182.7" y="317.4" width="124.6" height="37"/>
			<rect x="182.7" y="317.4" class="st6" width="124.6" height="11.7"/>
			<g>
				<g>
					<rect x="190" y="316.9" width="4.3" height="15.5"/>
					<rect x="220.7" y="316.9" width="4.3" height="15.5"/>
				</g>
				<g>
					<rect x="265" y="316.9" width="4.3" height="15.5"/>
					<rect x="295.7" y="316.9" width="4.3" height="15.5"/>
				</g>
			</g>
			<path class="st7" d="M258.3,152.3c0,0,43,1.1,66,31.6c2.8,3.7,5,8,6.4,12.6l8.3,36l-37.4,2.6L258.3,152.3z"/>
			<path class="st7" d="M232.4,152.3c0,0-43,1.1-66,31.6c-2.8,3.7-5,8-6.4,12.6l-8.3,37.9l37.4,0.7L232.4,152.3z"/>
			<path class="st7" d="M307.4,297.8l2.8-3.8l-2.8-6.4v-79.7c0-32.7-25.6-59.4-56.9-59.4h-11c-31.3,0-56.9,26.7-56.9,59.4v79.7
				l-2.8,6.4l2.8,3.8l-4.2,10.2l4.1,12.3h0.2h17.1h90.7h17.1h0.2l4.1-12.3L307.4,297.8z"/>
			<path class="st8" d="M217.2,51.5h-11.2v42c0,0-0.2,19.3,11.2,23.3V51.5z"/>
			<path class="st8" d="M272.8,51.5h11.2v42c0,0,0.2,19.3-11.2,23.3V51.5z"/>
			<path class="st5" d="M262.1,128.5v27.3c0,9.4-7.7,17.1-17.1,17.1c-9.4,0-17.1-7.7-17.1-17.1v-27.3c0-9.4,7.7-17.1,17.1-17.1
				c4.7,0,9,1.9,12.1,5C260.2,119.5,262.1,123.8,262.1,128.5z"/>
			<path class="st5" d="M262.1,128.5v19.9c-16.2,0.1-27.9-4.5-34.2-7.8v-12.2c0-9.4,7.7-17.1,17.1-17.1c4.7,0,9,1.9,12.1,5
				C260.2,119.5,262.1,123.8,262.1,128.5z"/>
			<path class="st5" d="M277.2,63v48.6c0,16.2-13.2,29.4-29.4,29.4h-5.7c-16.1,0-29.4-13.2-29.4-29.4V63c0-16.2,13.2-29.4,29.4-29.4
				h5.7C264,33.6,277.2,46.8,277.2,63z"/>
			<path class="st5" d="M277.2,63v13.4c-37.3,7.1-55.9-2.3-64.4-10V63c0-16.2,13.2-29.4,29.4-29.4h5.7C264,33.6,277.2,46.8,277.2,63
				z"/>
			<path class="st8" d="M283.9,50.6c0-12.1-17.4-21.9-38.9-21.9s-38.9,9.8-38.9,21.9c0,4,2,7.8,5.3,11V71l1.2,20.7h1.9
				c1.6,0,3-1.3,3-2.8V75.8c2.7-2.3,3.8-5.3,4.3-7.6c6.5,2.7,14.5,4.3,23.3,4.3c8.7,0,16.8-1.6,23.3-4.3c0.5,2.3,1.7,5.4,4.3,7.6
				v13.2c0,1.5,1.3,2.8,3,2.8h1.9l1.2-20.7v-9.4C282,58.4,283.9,54.6,283.9,50.6z"/>
			<path class="st9" d="M230.3,108.2c1,7.3,7.2,12.9,14.7,12.9c7.5,0,13.7-5.6,14.7-12.9H230.3z"/>
			<path class="st10" d="M247.9,102.4h-5.7c-1.2,0-2.2-1-2.2-2.2l0,0c0-1.2,1-2.2,2.2-2.2h5.7c1.2,0,2.2,1,2.2,2.2l0,0
				C250,101.5,249,102.4,247.9,102.4z"/>
			<g>
				<g>
					<path class="st11" d="M234.3,89.4c-0.2,0-0.3-0.1-0.5-0.2c-1.1-1.1-2.6-1.8-4.3-1.8c-1.6,0-3.1,0.6-4.3,1.8
						c-0.3,0.3-0.7,0.3-0.9,0s-0.3-0.7,0-0.9c1.4-1.4,3.2-2.1,5.2-2.1c2,0,3.8,0.8,5.2,2.1c0.3,0.3,0.3,0.7,0,0.9
						C234.6,89.3,234.5,89.4,234.3,89.4z"/>
				</g>
				<g>
					<path class="st8" d="M235.6,81.6c-0.3,0-0.7-0.1-0.9-0.4c-1.4-1.4-3.2-2.1-5.1-2.1c-1.9,0-3.7,0.7-5.1,2.1
						c-0.5,0.5-1.3,0.5-1.8,0c-0.5-0.5-0.5-1.3,0-1.8c1.9-1.9,4.3-2.9,6.9-2.9c2.6,0,5.1,1,6.9,2.9c0.5,0.5,0.5,1.3,0,1.8
						C236.3,81.4,235.9,81.6,235.6,81.6z"/>
				</g>
				<g>
					<path class="st11" d="M265.1,89.4c-0.2,0-0.3-0.1-0.5-0.2c-1.1-1.1-2.6-1.8-4.3-1.8c-1.6,0-3.1,0.6-4.3,1.8
						c-0.3,0.3-0.7,0.3-0.9,0s-0.3-0.7,0-0.9c1.4-1.4,3.2-2.1,5.2-2.1c2,0,3.8,0.8,5.2,2.1c0.3,0.3,0.3,0.7,0,0.9
						C265.5,89.3,265.3,89.4,265.1,89.4z"/>
				</g>
				<g>
					<path class="st8" d="M266.4,81.6c-0.3,0-0.7-0.1-0.9-0.4c-1.4-1.4-3.2-2.1-5.1-2.1c-1.9,0-3.7,0.7-5.1,2.1
						c-0.5,0.5-1.3,0.5-1.8,0c-0.5-0.5-0.5-1.3,0-1.8c1.9-1.9,4.3-2.9,6.9-2.9c2.6,0,5.1,1,6.9,2.9c0.5,0.5,0.5,1.3,0,1.8
						C267.1,81.4,266.8,81.6,266.4,81.6z"/>
				</g>
			</g>
			<path d="M244.9,132.2h-8.1c-2,0-3.6-1.6-3.6-3.6l0,0c0-2,1.6-3.6,3.6-3.6h8.1c2,0,3.6,1.6,3.6,3.6l0,0
				C248.4,130.6,246.8,132.2,244.9,132.2z"/>
			<g>
				<path class="st12" d="M234.4,129.8h-13.3c-5.3,0-9.9-3.2-11.8-8l-0.1-0.2l-3.5-20.1c-0.1-0.7,0.3-1.3,1-1.4
					c0.7-0.1,1.3,0.3,1.4,1l3.5,20c1.6,3.9,5.3,6.4,9.5,6.4h13.3c0.7,0,1.2,0.5,1.2,1.2S235,129.8,234.4,129.8z"/>
			</g>
			<g>
				<g>
					<path d="M212.8,83.4v20.1c0,0.7-0.6,1.4-1.4,1.4h-3c-0.2,0-0.3,0-0.5,0c-3.9-0.4-7-5.3-7-11.4c0-6.1,3.1-11,7-11.4
						c0.2,0,0.3,0,0.5,0h3C212.2,82.1,212.8,82.7,212.8,83.4z"/>
					<path class="st12" d="M212.8,83.4v20.1c0,0.7-0.6,1.4-1.4,1.4h-3c-0.2,0-0.3,0-0.5,0V82.1c0.2,0,0.3,0,0.5,0h3
						C212.2,82.1,212.8,82.7,212.8,83.4z"/>
				</g>
				<g>
					<path d="M277.2,83.4v20.1c0,0.7,0.6,1.4,1.4,1.4h3c0.2,0,0.3,0,0.5,0c3.9-0.4,7-5.3,7-11.4c0-6.1-3.1-11-7-11.4
						c-0.2,0-0.3,0-0.5,0h-3C277.8,82.1,277.2,82.7,277.2,83.4z"/>
					<path class="st12" d="M277.2,83.4v20.1c0,0.7,0.6,1.4,1.4,1.4h3c0.2,0,0.3,0,0.5,0V82.1c-0.2,0-0.3,0-0.5,0h-3
						C277.8,82.1,277.2,82.7,277.2,83.4z"/>
				</g>
			</g>
			<g>
				<rect x="243.7" y="175.1" class="st13" width="2.6" height="145.2"/>
			</g>
			<g>
				<path class="st14" d="M293.4,191.5v18.6c0,0.3-0.2,0.5-0.5,0.5h-5.3c-0.3,0-0.5-0.2-0.5-0.5v-18.6c0-0.3,0.2-0.5,0.5-0.5h5.3
					C293.2,191,293.4,191.2,293.4,191.5z"/>
				<path class="st15" d="M291.8,239.8h-19.5c-2.3,0-4.1-1.8-4.1-4.1v-36.1h27.8v36.1C295.9,238,294.1,239.8,291.8,239.8z"/>
				<rect x="268.2" y="199.6" class="st9" width="27.8" height="4.5"/>
				<rect x="288.3" y="195" class="st16" width="4.1" height="15.6"/>
				<path class="st17" d="M293.4,191.5v1.9h-6.2v-1.9c0-0.3,0.2-0.5,0.5-0.5h5.3C293.2,191,293.4,191.2,293.4,191.5z"/>
			</g>
			<path class="st5" d="M456,175.6c1.3-1.4,2.7-2.7,4.1-3.7c-0.2-0.4-0.5-0.7-0.8-1c-1.4,1.3-3.9,3.6-6.5,6.6
				c-1.2,0.3-2.4,1.1-2.7,3.2c0,0,0,0,0,0c-3,3.8-5.9,8.3-7.5,12.9c0.2-0.3,3.1-5.3,7.3-10.8c-0.2,3.3,0.1,6,0.1,6s-3.9,0.3-3.9,6.3
				c0,6,0,6,0,6s-10.8,4.4-11.6,11.9l13.4-6.9l2.2-12.4l5-3.8v-9.9l1.4,4.4c0,0,0.9,1.6,1.9,2.6l2.5-4.3
				C460.4,178.1,457.4,176.2,456,175.6z M454.3,177.4C454.3,177.4,454.3,177.4,454.3,177.4L454.3,177.4L454.3,177.4
				C454.3,177.4,454.3,177.4,454.3,177.4z"/>
			<path class="st5" d="M458.6,191.8c-0.2,1.3-0.5,2.6-1,3.8c-0.6,1.5-1.6,2.7-2.7,3.8c-1.3,1.3-2.8,2.3-4.2,3.4h0c0,0,0,0,0,0
				c0.3-0.9,0.1-1.9-0.1-2.8c-0.3-1.2-0.6-2.3-0.3-3.5c0.1-0.2,0.1-0.3,0.2-0.5c0.2-0.4,0.4-0.8,0.6-1.2c0.7-1.5,0.6-3.2,0.5-4.8
				c-0.1-1-0.1-2-0.2-2.9c-0.1-1.4-0.1-2.8-0.2-4.1c-0.1-1.3-0.1-2.6,0.3-3.8c0.4-1.2,1.4-2.3,2.7-2.4c1.6-0.1,2.9,1.2,3.6,2.6
				C459.7,183.1,459.3,187.6,458.6,191.8z"/>
			<polygon class="st18" points="264.1,316.1 245,355 225.9,316.1 232.2,256.2 232.3,254.7 232.5,253.1 232.7,251.5 239.2,189.6 
				239.2,188.9 243.3,186.7 245,185.8 246.9,186.8 250.8,188.9 251.1,191.9 			"/>
			<polygon class="st18" points="252.9,253.1 252.9,256.2 232.2,256.2 232.3,254.7 232.5,253.1 			"/>
			<polygon class="st18" points="255.4,170.6 253.9,174.3 251.9,179.2 250.8,182 250.2,183.5 239.8,183.5 239.2,182 238,179.1 
				236.1,174.3 234.6,170.6 240.1,162.7 249.9,162.7 			"/>
			<polygon class="st19" points="239.8,159.6 242.9,162.7 238,179.1 236.4,184.7 234.3,177.3 232.2,170 			"/>
			<polygon class="st19" points="257.8,170 255.7,177.2 253.6,184.7 251.9,179.2 247.1,162.7 247.2,162.7 250.2,159.6 			"/>
			<polygon class="st15" points="242.9,162.7 236.1,174.3 234.3,177.3 233.4,178.8 222.4,150.9 227.9,147.4 239.8,159.6 			"/>
			<polygon class="st15" points="267.6,150.9 256.6,178.8 255.7,177.2 253.9,174.3 247.2,162.7 250.2,159.6 262.1,147.4 			"/>
			<polygon class="st16" points="252.9,251.5 252.9,254.7 231.3,254.7 231.6,251.5 			"/>
			<path class="st9" d="M407,71.2h-6.5v-6.5c0-1.3-1.1-2.3-2.3-2.3s-2.3,1.1-2.3,2.3v6.5h-6.5c-1.3,0-2.3,1.1-2.3,2.3
				s1.1,2.3,2.3,2.3h6.5v6.5c0,1.3,1.1,2.3,2.3,2.3s2.3-1.1,2.3-2.3v-6.5h6.5c1.3,0,2.3-1.1,2.3-2.3S408.3,71.2,407,71.2z"/>
			<path class="st9" d="M185.2,126.5h-6.1v-6.1c0-1.2-1-2.2-2.2-2.2c-1.2,0-2.2,1-2.2,2.2v6.1h-6.1c-1.2,0-2.2,1-2.2,2.2
				s1,2.2,2.2,2.2h6.1v6.1c0,1.2,1,2.2,2.2,2.2c1.2,0,2.2-1,2.2-2.2v-6.1h6.1c1.2,0,2.2-1,2.2-2.2S186.4,126.5,185.2,126.5z"/>
			<path class="st9" d="M430.6,62.7h-4.1v-4.1c0-0.8-0.7-1.5-1.5-1.5c-0.8,0-1.5,0.7-1.5,1.5v4.1h-4.1c-0.8,0-1.5,0.7-1.5,1.5
				c0,0.8,0.7,1.5,1.5,1.5h4.1v4.1c0,0.8,0.7,1.5,1.5,1.5c0.8,0,1.5-0.7,1.5-1.5v-4.1h4.1c0.8,0,1.5-0.7,1.5-1.5
				C432.1,63.4,431.4,62.7,430.6,62.7z"/>
			<path class="st9" d="M85.8,135h-5v-5c0-1-0.8-1.8-1.8-1.8c-1,0-1.8,0.8-1.8,1.8v5h-5c-1,0-1.8,0.8-1.8,1.8s0.8,1.8,1.8,1.8h5v5
				c0,1,0.8,1.8,1.8,1.8c1,0,1.8-0.8,1.8-1.8v-5h5c1,0,1.8-0.8,1.8-1.8S86.8,135,85.8,135z"/>
			<path class="st9" d="M195.1,110.4h-3.8v-3.8c0-0.8-0.6-1.4-1.4-1.4c-0.8,0-1.4,0.6-1.4,1.4v3.8h-3.8c-0.8,0-1.4,0.6-1.4,1.4
				s0.6,1.4,1.4,1.4h3.8v3.8c0,0.8,0.6,1.4,1.4,1.4c0.8,0,1.4-0.6,1.4-1.4v-3.8h3.8c0.8,0,1.4-0.6,1.4-1.4S195.8,110.4,195.1,110.4z
				"/>
			<path class="st9" d="M14.7,64.4h-3.6v-3.6c0-0.7-0.6-1.3-1.3-1.3s-1.3,0.6-1.3,1.3v3.6H4.9c-0.7,0-1.3,0.6-1.3,1.3S4.2,67,4.9,67
				h3.6v3.6c0,0.7,0.6,1.3,1.3,1.3s1.3-0.6,1.3-1.3V67h3.6c0.7,0,1.3-0.6,1.3-1.3S15.5,64.4,14.7,64.4z"/>
			<g>
				<path d="M285.7,87.3h-3.6V51.5c0-0.7-1.1-18.3-33.6-20.9h-7c-32.5,2.7-33.6,20.3-33.6,21l0,35.7h-3.6V51.5c0-0.9,1-21.6,37-24.5
					c0,0,0.1,0,0.1,0h7.2c0,0,0.1,0,0.1,0c36,2.9,37,23.6,37,24.5L285.7,87.3z"/>
			</g>
			<path class="st5" d="M454.8,199.4c-1.3,1.3-2.8,2.3-4.2,3.4v0l-0.1-2.8l-0.1-4c0.2-0.4,0.4-0.8,0.6-1.2c0.7-1.5,0.6-3.2,0.5-4.8
				c-0.1-1-0.1-2-0.2-2.9c1.1,0.8,2.7,2.3,3.3,4.5C455.4,194.3,455.3,196.6,454.8,199.4z"/>
			<path class="st5" d="M449,189.1c-0.5,0.3-0.9,0.8-1.2,1.4c-0.4,0.9-0.4,1.9-0.4,2.8c0,2.4,0,4.9,0,7.3c0,0.4,0,0.8-0.2,1.1
				c-0.2,0.2-0.4,0.4-0.6,0.5c-5.2,2.8-10.6,5.5-13.5,10.9c-1,1.9-1.7,4-2.7,5.9c-1.6,2.8-4,5-6,7.6c1.4-0.3,2.7-1.1,3.9-1.9
				c5-3.3,10-6.5,14.9-9.8c3.5-2.3,7.1-4.7,8.7-8.6c0.5-1.2,0.7-2.5,0.9-3.8c0.6-3.8,1.3-9-0.9-12.5c-0.4-0.7-1.2-1.2-2-1.2
				C449.6,188.8,449.3,188.9,449,189.1z"/>
			<polygon class="st18" points="251.1,191.9 239.2,189.6 239.2,188.9 243.3,186.7 246.9,186.8 250.8,188.9 			"/>
			<polygon class="st18" points="250.8,182 250.2,183.5 239.8,183.5 239.2,182 			"/>
			<polygon class="st18" points="251.3,189.1 238.7,189.1 239.3,183 250.7,183 			"/>
		</g>
		<g>
			<rect x="269.5" y="215.1" class="st20" width="24.1" height="11.9"/>
			<rect x="269.8" y="219.9" class="st21" width="23.5" height="5.5"/>
			<path class="st22" d="M271.4,214.1h1.3c0.2,0,0.3,0.1,0.3,0.3v1.5c0,0.2-0.1,0.3-0.3,0.3h-1.3c-0.2,0-0.3-0.1-0.3-0.3v-1.5
				C271.1,214.2,271.3,214.1,271.4,214.1"/>
			<path class="st22" d="M290.4,214.1h1.3c0.2,0,0.3,0.1,0.3,0.3v1.5c0,0.2-0.1,0.3-0.3,0.3h-1.3c-0.2,0-0.3-0.1-0.3-0.3v-1.5
				C290.1,214.2,290.2,214.1,290.4,214.1"/>
			<rect x="269.8" y="225.4" class="st23" width="23.5" height="1.1"/>
			<path class="st9" d="M290.5,225.9l0.1,0.2h-0.1L290.5,225.9z M290.7,226.2L290.7,226.2l-0.1-0.5h-0.1l-0.2,0.5h0.1l0-0.1
				L290.7,226.2L290.7,226.2z M290,226.2L290,226.2l0.1-0.5H290V226.2z M289.6,226v0.1c0,0-0.1,0-0.1,0c-0.1,0-0.2-0.1-0.2-0.2
				c0-0.1,0.1-0.2,0.2-0.2c0.1,0,0.1,0,0.1,0l0-0.1c0,0-0.1,0-0.2,0c-0.1,0-0.2,0.1-0.2,0.2c0,0.1,0.1,0.2,0.2,0.2
				c0.1,0,0.1,0,0.2-0.1L289.6,226L289.6,226z M288.9,225.9l0.1,0.2h-0.1L288.9,225.9z M289,226.2L289,226.2l-0.1-0.5h-0.1l-0.2,0.5
				h0.1l0-0.1L289,226.2L289,226.2z M288.5,226.2l0-0.5h-0.1l-0.2,0.3l-0.2-0.3H288l0,0.5h0.1l0-0.3l0.1,0.2h0.1l0.1-0.2
				L288.5,226.2L288.5,226.2z M287.4,225.9l0.1,0.2h-0.1L287.4,225.9z M287.5,226.2L287.5,226.2l-0.1-0.5h-0.1l-0.2,0.5h0.1l0-0.1
				L287.5,226.2L287.5,226.2z M286.7,226.1L286.7,226.1l-0.1-0.3h0.1c0.1,0,0.2,0.1,0.2,0.2C286.9,226.1,286.8,226.1,286.7,226.1z
				 M286.7,225.8h-0.2v0.5h0.2c0.1,0,0.2-0.1,0.2-0.2C287,225.9,286.9,225.8,286.7,225.8z M286,225.9l0.1,0.2h-0.1L286,225.9z
				 M286.1,226.2L286.1,226.2l-0.1-0.5H286l-0.2,0.5h0.1l0-0.1L286.1,226.2L286.1,226.2z M285.4,225.8v0.2h-0.2v-0.2h-0.1v0.5h0.1
				V226h0.2v0.2h0.1L285.4,225.8L285.4,225.8z M284.7,226.1v-0.4h-0.1L284.7,226.1l0.2,0.1v-0.1H284.7z M284.2,226.2L284.2,226.2
				l0.1-0.5h-0.1V226.2z M283.6,225.9l0.1,0.2h-0.1L283.6,225.9z M283.8,226.2L283.8,226.2l-0.1-0.5h-0.1l-0.2,0.5h0.1l0-0.1
				L283.8,226.2L283.8,226.2z M283.1,225.8v0.3l-0.3-0.3h-0.1v0.5h0.1v-0.3l0.3,0.3h0.1L283.1,225.8L283.1,225.8z M282.2,226.2
				c0.1,0,0.2-0.1,0.2-0.1c0-0.1-0.1-0.1-0.1-0.1c-0.1,0-0.1,0-0.1-0.1c0,0,0,0,0.1,0c0,0,0.1,0,0.1,0l0-0.1c0,0-0.1,0-0.2,0
				c-0.1,0-0.2,0.1-0.2,0.1c0,0.1,0.1,0.1,0.1,0.1c0.1,0,0.1,0,0.1,0.1C282.3,226.1,282.2,226.1,282.2,226.2c0-0.1-0.1-0.1-0.1-0.1
				l0,0.1C282.1,226.2,282.1,226.2,282.2,226.2z M281.6,225.9l0.1,0.2h-0.1L281.6,225.9z M281.7,226.2L281.7,226.2l-0.1-0.5h-0.1
				l-0.2,0.5h0.1l0-0.1L281.7,226.2L281.7,226.2z M281.1,226.2L281.1,226.2l0.1-0.5h-0.1V226.2z M280.6,225.8L280.6,225.8
				c0.1,0,0.2,0,0.2,0.1c0,0.1,0,0.1-0.1,0.1h-0.1V225.8z M280.8,226.2l-0.1-0.2c0.1,0,0.1-0.1,0.1-0.1c0-0.1-0.1-0.2-0.2-0.2h-0.2
				v0.5h0.1v-0.1h0.1h0l0.1,0.1H280.8z M280,226.1V226h0.2v-0.1H280v-0.1h0.2v-0.1h-0.3L280,226.1l0.2,0.1v-0.1H280z M279.7,225.8
				h-0.4v0.1h0.2v0.4h0.1v-0.4L279.7,225.8L279.7,225.8z M278.9,225.9l0.1,0.2h-0.1L278.9,225.9z M279.1,226.2L279.1,226.2l-0.1-0.5
				h-0.1l-0.2,0.5h0.1l0-0.1L279.1,226.2L279.1,226.2z M278.3,226.1L278.3,226.1l-0.1-0.1h0.1C278.4,226,278.4,226,278.3,226.1
				C278.4,226.1,278.4,226.1,278.3,226.1z M278.4,225.9C278.4,225.9,278.4,225.9,278.4,225.9l-0.2,0.1v-0.1L278.4,225.9
				C278.4,225.8,278.4,225.9,278.4,225.9z M278.4,226C278.5,226,278.5,225.9,278.4,226c0.1-0.2,0-0.2-0.1-0.2h-0.2v0.5h0.2
				c0.1,0,0.2,0,0.2-0.1C278.5,226,278.5,226,278.4,226z M277.5,226.1V226h0.2v-0.1h-0.2v-0.1h0.2v-0.1h-0.3L277.5,226.1l0.2,0.1
				v-0.1H277.5z M276.9,226.1L276.9,226.1l-0.1-0.3h0.1c0.1,0,0.2,0.1,0.2,0.2C277.1,226.1,277,226.1,276.9,226.1z M276.9,225.8
				h-0.2v0.5h0.2c0.1,0,0.2-0.1,0.2-0.2C277.2,225.9,277.1,225.8,276.9,225.8z M276.2,225.9l0.1,0.2h-0.1L276.2,225.9z M276.3,226.2
				L276.3,226.2l-0.1-0.5h-0.1l-0.2,0.5h0.1l0-0.1L276.3,226.2L276.3,226.2z M275.6,226.2c0.1,0,0.2-0.1,0.2-0.2v-0.3h-0.1v0.3
				C275.6,226.1,275.6,226.1,275.6,226.2c0-0.1-0.1-0.1-0.1-0.1l0,0.1C275.5,226.2,275.5,226.2,275.6,226.2z M275.1,226.1
				c-0.1,0-0.2-0.1-0.2-0.2c0-0.1,0.1-0.2,0.2-0.2c0.1,0,0.1,0.1,0.1,0.2C275.2,226.1,275.1,226.1,275.1,226.1z M275.1,226.2
				c0.1,0,0.2-0.1,0.2-0.2c0-0.1-0.1-0.2-0.2-0.2c-0.1,0-0.2,0.1-0.2,0.2C274.8,226.1,274.9,226.2,275.1,226.2z M274.4,226.1v-0.4
				h-0.1L274.4,226.1l0.2,0.1v-0.1H274.4z M273.7,225.9l0.1,0.2h-0.1L273.7,225.9z M273.9,226.2L273.9,226.2l-0.1-0.5h-0.1l-0.2,0.5
				h0.1l0-0.1L273.9,226.2L273.9,226.2z M273.1,226.2c0.1,0,0.2-0.1,0.2-0.2v-0.3h-0.1v0.3C273.2,226.1,273.2,226.1,273.1,226.2
				c-0.1-0.1-0.1-0.1-0.1-0.2v-0.3h-0.1v0.3C272.9,226.2,273,226.2,273.1,226.2z M272.5,226.2c0.1,0,0.2-0.1,0.2-0.1
				c0-0.1-0.1-0.1-0.1-0.1c-0.1,0-0.1,0-0.1-0.1c0,0,0,0,0.1,0c0,0,0.1,0,0.1,0l0-0.1c0,0-0.1,0-0.2,0c-0.1,0-0.2,0.1-0.2,0.1
				c0,0.1,0.1,0.1,0.1,0.1c0.1,0,0.1,0,0.1,0.1C272.6,226.1,272.5,226.1,272.5,226.2c0-0.1-0.1-0.1-0.1-0.1l0,0.1
				C272.4,226.2,272.4,226.2,272.5,226.2z"/>
			<rect x="269.8" y="215.4" class="st23" width="23.5" height="4.5"/>
			<path class="st9" d="M290.9,219.4c0.7,0,1.1-0.4,1.1-1c0-0.7-0.4-0.9-0.9-1c-0.4-0.1-0.6-0.2-0.6-0.4c0-0.2,0.2-0.3,0.4-0.3
				c0.3,0,0.5,0.1,0.7,0.3l0.3-0.6c-0.3-0.2-0.6-0.4-1.1-0.4c-0.7,0-1.2,0.4-1.2,1c0,0.6,0.4,0.8,0.9,1c0.4,0.1,0.6,0.2,0.6,0.4
				c0,0.2-0.2,0.3-0.4,0.3c-0.3,0-0.6-0.1-0.9-0.4l-0.4,0.6C289.9,219.2,290.3,219.4,290.9,219.4 M288,217.1l0.4,0.9h-0.7L288,217.1
				z M288.8,219.3h0.8l-1.4-3.3h-0.5l-1.4,3.3h0.8l0.2-0.6h1.2L288.8,219.3z M285.3,219.3h0.7V216h-0.7V219.3z M283.1,216.7h0.3
				c0.4,0,0.6,0.2,0.6,0.5c0,0.3-0.2,0.5-0.6,0.5h-0.4V216.7z M284.9,219.3l-0.7-1.1c0.4-0.2,0.6-0.6,0.6-1c0-0.7-0.5-1.2-1.3-1.2
				h-1.1v3.3h0.7v-0.9h0.4h0l0.6,0.9H284.9z M280.4,218.6V218h1.3v-0.7h-1.3v-0.6h1.4V216h-2.2v3.3h2.2v-0.7H280.4z M279.3,216h-2.7
				v0.7h1v2.6h0.7v-2.6h1V216z M275.2,217.1l0.4,0.9h-0.7L275.2,217.1z M276.1,219.3h0.8l-1.4-3.3H275l-1.4,3.3h0.8l0.2-0.6h1.2
				L276.1,219.3z M272.4,218.7h-0.6V218h0.5c0.3,0,0.5,0.1,0.5,0.4C272.8,218.5,272.7,218.7,272.4,218.7z M272.7,217
				c0,0.2-0.1,0.3-0.5,0.3h-0.5v-0.7h0.5C272.6,216.7,272.7,216.8,272.7,217z M273,217.6c0.3-0.1,0.5-0.4,0.5-0.7
				c0-0.5-0.3-0.8-1.1-0.8h-1.2v3.3h1.3c0.9,0,1.2-0.4,1.2-0.9C273.6,218,273.4,217.7,273,217.6z"/>
			<path class="st24" d="M290.9,221.9l0.4,1.1h-0.9L290.9,221.9z M291.9,224.4h1l-1.7-3.8h-0.6l-1.7,3.8h1l0.3-0.7h1.4L291.9,224.4z
				 M287.5,222.6h-0.4v-1.2h0.4c0.5,0,0.7,0.3,0.7,0.6C288.2,222.3,288,222.6,287.5,222.6z M287.5,220.6h-1.4v3.8h0.9v-1l0.4,0
				c1,0,1.6-0.5,1.6-1.3C289.1,221.2,288.5,220.6,287.5,220.6z M284.4,224.4h0.9v-3.8h-0.9V224.4z M281.8,221.4h0.4
				c0.4,0,0.7,0.3,0.7,0.6c0,0.4-0.3,0.6-0.7,0.6h-0.4V221.4z M284,224.4l-0.8-1.2c0.4-0.2,0.7-0.6,0.7-1.2c0-0.8-0.6-1.4-1.6-1.4
				h-1.4v3.8h0.9v-1h0.5h0l0.7,1H284z M272.9,221.4v-0.8h-2.6v3.8h0.9v-1.2h1.5v-0.8h-1.5v-1H272.9z M274.4,223.6v-3h-0.9v3.8h2.6
				v-0.8H274.4z"/>
			<path class="st25" d="M278.5,223.2l-1.3,0.6l1-3.4c-1.1,0-2,1-2,2.1c0,1.1,0.8,2,1.9,2.1L278.5,223.2z"/>
			<path class="st25" d="M279.3,220.6v-0.3l-1.2,2.6l1.2-0.5l-1.5,3l0.7-0.9c1.1-0.1,1.9-1,1.9-2.1
				C280.4,221.7,279.9,221,279.3,220.6"/>
			<polygon class="st9" points="272,215.2 272,214.9 271.6,214.9 271.6,214.7 272,214.7 272,214.4 272.1,214.4 272.1,214.7 
				272.5,214.7 272.5,214.9 272.1,214.9 272.1,215.2 			"/>
			<rect x="290.7" y="214.7" class="st9" width="0.7" height="0.2"/>
			<rect x="268.7" y="213.4" class="st26" width="25.7" height="13.8"/>
		</g>
	</g>
	<g>
		<g id="_x38__1_">
			<g>
				<g>
					<linearGradient id="SVGID_1_" gradientUnits="userSpaceOnUse" x1="410.6558" y1="131.4024" x2="421.6254" y2="131.4024">
						<stop  offset="0" style="stop-color:#7C7C7C"/>
						<stop  offset="6.374645e-02" style="stop-color:#BCBCBC"/>
						<stop  offset="0.1272" style="stop-color:#FFFFFF"/>
						<stop  offset="0.2149" style="stop-color:#FFFFFF"/>
						<stop  offset="0.2299" style="stop-color:#F9F9F9"/>
						<stop  offset="0.2494" style="stop-color:#E9E9E9"/>
						<stop  offset="0.2715" style="stop-color:#CECECE"/>
						<stop  offset="0.2954" style="stop-color:#A8A8A8"/>
						<stop  offset="0.3209" style="stop-color:#787878"/>
						<stop  offset="0.3472" style="stop-color:#3E3E3E"/>
						<stop  offset="0.3684" style="stop-color:#0A090A"/>
						<stop  offset="0.5" style="stop-color:#0A090A"/>
						<stop  offset="0.5123" style="stop-color:#3A393A"/>
						<stop  offset="0.5273" style="stop-color:#6E6D6E"/>
						<stop  offset="0.5426" style="stop-color:#9A9A9A"/>
						<stop  offset="0.5579" style="stop-color:#BFBEBF"/>
						<stop  offset="0.5731" style="stop-color:#DBDBDB"/>
						<stop  offset="0.5883" style="stop-color:#EFEFEF"/>
						<stop  offset="0.6034" style="stop-color:#FBFBFB"/>
						<stop  offset="0.6184" style="stop-color:#FFFFFF"/>
						<stop  offset="0.6568" style="stop-color:#E1E1E1"/>
						<stop  offset="0.7541" style="stop-color:#9B9B9B"/>
						<stop  offset="0.8242" style="stop-color:#6F6F6F"/>
						<stop  offset="0.8596" style="stop-color:#5E5E5E"/>
						<stop  offset="0.8837" style="stop-color:#656565"/>
						<stop  offset="0.9197" style="stop-color:#7A7A7A"/>
						<stop  offset="0.9629" style="stop-color:#9B9B9B"/>
						<stop  offset="1" style="stop-color:#BDBDBD"/>
					</linearGradient>
					<path class="st27" d="M421.9,136.2h-11.4v-7.7c0-1,0.8-1.9,1.9-1.9h7.7c1,0,1.9,0.8,1.9,1.9V136.2z"/>
					<linearGradient id="SVGID_2_" gradientUnits="userSpaceOnUse" x1="410.1579" y1="128.2522" x2="422.6601" y2="128.2522">
						<stop  offset="0" style="stop-color:#000000"/>
						<stop  offset="0.2235" style="stop-color:#696C6E"/>
						<stop  offset="0.4109" style="stop-color:#BCC1C5"/>
						<stop  offset="0.4954" style="stop-color:#DCE2E7"/>
						<stop  offset="0.5439" style="stop-color:#D0D6DA"/>
						<stop  offset="0.6329" style="stop-color:#B0B5B9"/>
						<stop  offset="0.7524" style="stop-color:#7D8083"/>
						<stop  offset="0.8961" style="stop-color:#37383A"/>
						<stop  offset="1" style="stop-color:#000000"/>
					</linearGradient>
					<path class="st28" d="M410.6,127.8c-0.1,0.3-0.2,0.6-0.2,0.9c0,0,11.4,0,11.4,0c0-0.3-0.1-0.6-0.2-0.9H410.6z"/>
					<linearGradient id="SVGID_3_" gradientUnits="userSpaceOnUse" x1="410.7149" y1="127.0132" x2="421.5661" y2="127.0132">
						<stop  offset="0" style="stop-color:#7C7C7C"/>
						<stop  offset="0.2496" style="stop-color:#BCBCBC"/>
						<stop  offset="0.4981" style="stop-color:#FFFFFF"/>
						<stop  offset="0.5692" style="stop-color:#FBFBFB"/>
						<stop  offset="0.6342" style="stop-color:#F0F0F0"/>
						<stop  offset="0.6969" style="stop-color:#DEDEDE"/>
						<stop  offset="0.7581" style="stop-color:#C4C4C4"/>
						<stop  offset="0.8183" style="stop-color:#A2A2A2"/>
						<stop  offset="0.8776" style="stop-color:#797879"/>
						<stop  offset="0.9363" style="stop-color:#484748"/>
						<stop  offset="0.9932" style="stop-color:#111011"/>
						<stop  offset="1" style="stop-color:#0A090A"/>
					</linearGradient>
					<path class="st29" d="M421.4,127.4c-0.4-0.4-0.9-0.7-1.5-0.7h-7.4c-0.6,0-1.2,0.3-1.5,0.7H421.4z"/>
				</g>
				<g>
					<linearGradient id="SVGID_4_" gradientUnits="userSpaceOnUse" x1="425.406" y1="131.4024" x2="436.3758" y2="131.4024">
						<stop  offset="0" style="stop-color:#7C7C7C"/>
						<stop  offset="6.374645e-02" style="stop-color:#BCBCBC"/>
						<stop  offset="0.1272" style="stop-color:#FFFFFF"/>
						<stop  offset="0.2149" style="stop-color:#FFFFFF"/>
						<stop  offset="0.2299" style="stop-color:#F9F9F9"/>
						<stop  offset="0.2494" style="stop-color:#E9E9E9"/>
						<stop  offset="0.2715" style="stop-color:#CECECE"/>
						<stop  offset="0.2954" style="stop-color:#A8A8A8"/>
						<stop  offset="0.3209" style="stop-color:#787878"/>
						<stop  offset="0.3472" style="stop-color:#3E3E3E"/>
						<stop  offset="0.3684" style="stop-color:#0A090A"/>
						<stop  offset="0.5" style="stop-color:#0A090A"/>
						<stop  offset="0.5123" style="stop-color:#3A393A"/>
						<stop  offset="0.5273" style="stop-color:#6E6D6E"/>
						<stop  offset="0.5426" style="stop-color:#9A9A9A"/>
						<stop  offset="0.5579" style="stop-color:#BFBEBF"/>
						<stop  offset="0.5731" style="stop-color:#DBDBDB"/>
						<stop  offset="0.5883" style="stop-color:#EFEFEF"/>
						<stop  offset="0.6034" style="stop-color:#FBFBFB"/>
						<stop  offset="0.6184" style="stop-color:#FFFFFF"/>
						<stop  offset="0.6568" style="stop-color:#E1E1E1"/>
						<stop  offset="0.7541" style="stop-color:#9B9B9B"/>
						<stop  offset="0.8242" style="stop-color:#6F6F6F"/>
						<stop  offset="0.8596" style="stop-color:#5E5E5E"/>
						<stop  offset="0.8837" style="stop-color:#656565"/>
						<stop  offset="0.9197" style="stop-color:#7A7A7A"/>
						<stop  offset="0.9629" style="stop-color:#9B9B9B"/>
						<stop  offset="1" style="stop-color:#BDBDBD"/>
					</linearGradient>
					<path class="st30" d="M436.6,136.2h-11.4v-7.7c0-1,0.8-1.9,1.9-1.9h7.7c1,0,1.9,0.8,1.9,1.9V136.2z"/>
					<linearGradient id="SVGID_5_" gradientUnits="userSpaceOnUse" x1="424.9081" y1="128.2522" x2="437.4105" y2="128.2522">
						<stop  offset="0" style="stop-color:#000000"/>
						<stop  offset="0.2235" style="stop-color:#696C6E"/>
						<stop  offset="0.4109" style="stop-color:#BCC1C5"/>
						<stop  offset="0.4954" style="stop-color:#DCE2E7"/>
						<stop  offset="0.5439" style="stop-color:#D0D6DA"/>
						<stop  offset="0.6329" style="stop-color:#B0B5B9"/>
						<stop  offset="0.7524" style="stop-color:#7D8083"/>
						<stop  offset="0.8961" style="stop-color:#37383A"/>
						<stop  offset="1" style="stop-color:#000000"/>
					</linearGradient>
					<path class="st31" d="M425.4,127.8c-0.1,0.3-0.2,0.6-0.2,0.9c0,0,11.4,0,11.4,0c0-0.3-0.1-0.6-0.2-0.9H425.4z"/>
					<linearGradient id="SVGID_6_" gradientUnits="userSpaceOnUse" x1="425.4653" y1="127.0132" x2="436.3165" y2="127.0132">
						<stop  offset="0" style="stop-color:#7C7C7C"/>
						<stop  offset="0.2496" style="stop-color:#BCBCBC"/>
						<stop  offset="0.4981" style="stop-color:#FFFFFF"/>
						<stop  offset="0.5692" style="stop-color:#FBFBFB"/>
						<stop  offset="0.6342" style="stop-color:#F0F0F0"/>
						<stop  offset="0.6969" style="stop-color:#DEDEDE"/>
						<stop  offset="0.7581" style="stop-color:#C4C4C4"/>
						<stop  offset="0.8183" style="stop-color:#A2A2A2"/>
						<stop  offset="0.8776" style="stop-color:#797879"/>
						<stop  offset="0.9363" style="stop-color:#484748"/>
						<stop  offset="0.9932" style="stop-color:#111011"/>
						<stop  offset="1" style="stop-color:#0A090A"/>
					</linearGradient>
					<path class="st32" d="M436.1,127.4c-0.4-0.4-0.9-0.7-1.5-0.7h-7.4c-0.6,0-1.2,0.3-1.5,0.7H436.1z"/>
				</g>
				<g>
					<linearGradient id="SVGID_7_" gradientUnits="userSpaceOnUse" x1="440.1564" y1="131.4024" x2="451.1261" y2="131.4024">
						<stop  offset="0" style="stop-color:#7C7C7C"/>
						<stop  offset="6.374645e-02" style="stop-color:#BCBCBC"/>
						<stop  offset="0.1272" style="stop-color:#FFFFFF"/>
						<stop  offset="0.2149" style="stop-color:#FFFFFF"/>
						<stop  offset="0.2299" style="stop-color:#F9F9F9"/>
						<stop  offset="0.2494" style="stop-color:#E9E9E9"/>
						<stop  offset="0.2715" style="stop-color:#CECECE"/>
						<stop  offset="0.2954" style="stop-color:#A8A8A8"/>
						<stop  offset="0.3209" style="stop-color:#787878"/>
						<stop  offset="0.3472" style="stop-color:#3E3E3E"/>
						<stop  offset="0.3684" style="stop-color:#0A090A"/>
						<stop  offset="0.5" style="stop-color:#0A090A"/>
						<stop  offset="0.5123" style="stop-color:#3A393A"/>
						<stop  offset="0.5273" style="stop-color:#6E6D6E"/>
						<stop  offset="0.5426" style="stop-color:#9A9A9A"/>
						<stop  offset="0.5579" style="stop-color:#BFBEBF"/>
						<stop  offset="0.5731" style="stop-color:#DBDBDB"/>
						<stop  offset="0.5883" style="stop-color:#EFEFEF"/>
						<stop  offset="0.6034" style="stop-color:#FBFBFB"/>
						<stop  offset="0.6184" style="stop-color:#FFFFFF"/>
						<stop  offset="0.6568" style="stop-color:#E1E1E1"/>
						<stop  offset="0.7541" style="stop-color:#9B9B9B"/>
						<stop  offset="0.8242" style="stop-color:#6F6F6F"/>
						<stop  offset="0.8596" style="stop-color:#5E5E5E"/>
						<stop  offset="0.8837" style="stop-color:#656565"/>
						<stop  offset="0.9197" style="stop-color:#7A7A7A"/>
						<stop  offset="0.9629" style="stop-color:#9B9B9B"/>
						<stop  offset="1" style="stop-color:#BDBDBD"/>
					</linearGradient>
					<path class="st33" d="M451.4,136.2h-11.4v-7.7c0-1,0.8-1.9,1.9-1.9h7.7c1,0,1.9,0.8,1.9,1.9V136.2z"/>
					<linearGradient id="SVGID_8_" gradientUnits="userSpaceOnUse" x1="439.6585" y1="128.2522" x2="452.1608" y2="128.2522">
						<stop  offset="0" style="stop-color:#000000"/>
						<stop  offset="0.2235" style="stop-color:#696C6E"/>
						<stop  offset="0.4109" style="stop-color:#BCC1C5"/>
						<stop  offset="0.4954" style="stop-color:#DCE2E7"/>
						<stop  offset="0.5439" style="stop-color:#D0D6DA"/>
						<stop  offset="0.6329" style="stop-color:#B0B5B9"/>
						<stop  offset="0.7524" style="stop-color:#7D8083"/>
						<stop  offset="0.8961" style="stop-color:#37383A"/>
						<stop  offset="1" style="stop-color:#000000"/>
					</linearGradient>
					<path class="st34" d="M440.1,127.8c-0.1,0.3-0.2,0.6-0.2,0.9c0,0,11.4,0,11.4,0c0-0.3-0.1-0.6-0.2-0.9H440.1z"/>
					<linearGradient id="SVGID_9_" gradientUnits="userSpaceOnUse" x1="440.2157" y1="127.0132" x2="451.0668" y2="127.0132">
						<stop  offset="0" style="stop-color:#7C7C7C"/>
						<stop  offset="0.2496" style="stop-color:#BCBCBC"/>
						<stop  offset="0.4981" style="stop-color:#FFFFFF"/>
						<stop  offset="0.5692" style="stop-color:#FBFBFB"/>
						<stop  offset="0.6342" style="stop-color:#F0F0F0"/>
						<stop  offset="0.6969" style="stop-color:#DEDEDE"/>
						<stop  offset="0.7581" style="stop-color:#C4C4C4"/>
						<stop  offset="0.8183" style="stop-color:#A2A2A2"/>
						<stop  offset="0.8776" style="stop-color:#797879"/>
						<stop  offset="0.9363" style="stop-color:#484748"/>
						<stop  offset="0.9932" style="stop-color:#111011"/>
						<stop  offset="1" style="stop-color:#0A090A"/>
					</linearGradient>
					<path class="st35" d="M450.9,127.4c-0.4-0.4-0.9-0.7-1.5-0.7H442c-0.6,0-1.2,0.3-1.5,0.7H450.9z"/>
				</g>
				<g>
					<linearGradient id="SVGID_10_" gradientUnits="userSpaceOnUse" x1="454.9068" y1="131.4024" x2="465.8764" y2="131.4024">
						<stop  offset="0" style="stop-color:#7C7C7C"/>
						<stop  offset="6.374645e-02" style="stop-color:#BCBCBC"/>
						<stop  offset="0.1272" style="stop-color:#FFFFFF"/>
						<stop  offset="0.2149" style="stop-color:#FFFFFF"/>
						<stop  offset="0.2299" style="stop-color:#F9F9F9"/>
						<stop  offset="0.2494" style="stop-color:#E9E9E9"/>
						<stop  offset="0.2715" style="stop-color:#CECECE"/>
						<stop  offset="0.2954" style="stop-color:#A8A8A8"/>
						<stop  offset="0.3209" style="stop-color:#787878"/>
						<stop  offset="0.3472" style="stop-color:#3E3E3E"/>
						<stop  offset="0.3684" style="stop-color:#0A090A"/>
						<stop  offset="0.5" style="stop-color:#0A090A"/>
						<stop  offset="0.5123" style="stop-color:#3A393A"/>
						<stop  offset="0.5273" style="stop-color:#6E6D6E"/>
						<stop  offset="0.5426" style="stop-color:#9A9A9A"/>
						<stop  offset="0.5579" style="stop-color:#BFBEBF"/>
						<stop  offset="0.5731" style="stop-color:#DBDBDB"/>
						<stop  offset="0.5883" style="stop-color:#EFEFEF"/>
						<stop  offset="0.6034" style="stop-color:#FBFBFB"/>
						<stop  offset="0.6184" style="stop-color:#FFFFFF"/>
						<stop  offset="0.6568" style="stop-color:#E1E1E1"/>
						<stop  offset="0.7541" style="stop-color:#9B9B9B"/>
						<stop  offset="0.8242" style="stop-color:#6F6F6F"/>
						<stop  offset="0.8596" style="stop-color:#5E5E5E"/>
						<stop  offset="0.8837" style="stop-color:#656565"/>
						<stop  offset="0.9197" style="stop-color:#7A7A7A"/>
						<stop  offset="0.9629" style="stop-color:#9B9B9B"/>
						<stop  offset="1" style="stop-color:#BDBDBD"/>
					</linearGradient>
					<path class="st36" d="M466.1,136.2h-11.4v-7.7c0-1,0.8-1.9,1.9-1.9h7.7c1,0,1.9,0.8,1.9,1.9V136.2z"/>
					<linearGradient id="SVGID_11_" gradientUnits="userSpaceOnUse" x1="454.4087" y1="128.2522" x2="466.9111" y2="128.2522">
						<stop  offset="0" style="stop-color:#000000"/>
						<stop  offset="0.2235" style="stop-color:#696C6E"/>
						<stop  offset="0.4109" style="stop-color:#BCC1C5"/>
						<stop  offset="0.4954" style="stop-color:#DCE2E7"/>
						<stop  offset="0.5439" style="stop-color:#D0D6DA"/>
						<stop  offset="0.6329" style="stop-color:#B0B5B9"/>
						<stop  offset="0.7524" style="stop-color:#7D8083"/>
						<stop  offset="0.8961" style="stop-color:#37383A"/>
						<stop  offset="1" style="stop-color:#000000"/>
					</linearGradient>
					<path class="st37" d="M454.9,127.8c-0.1,0.3-0.2,0.6-0.2,0.9c0,0,11.4,0,11.4,0c0-0.3-0.1-0.6-0.2-0.9H454.9z"/>
					<linearGradient id="SVGID_12_" gradientUnits="userSpaceOnUse" x1="454.9658" y1="127.0132" x2="465.8172" y2="127.0132">
						<stop  offset="0" style="stop-color:#7C7C7C"/>
						<stop  offset="0.2496" style="stop-color:#BCBCBC"/>
						<stop  offset="0.4981" style="stop-color:#FFFFFF"/>
						<stop  offset="0.5692" style="stop-color:#FBFBFB"/>
						<stop  offset="0.6342" style="stop-color:#F0F0F0"/>
						<stop  offset="0.6969" style="stop-color:#DEDEDE"/>
						<stop  offset="0.7581" style="stop-color:#C4C4C4"/>
						<stop  offset="0.8183" style="stop-color:#A2A2A2"/>
						<stop  offset="0.8776" style="stop-color:#797879"/>
						<stop  offset="0.9363" style="stop-color:#484748"/>
						<stop  offset="0.9932" style="stop-color:#111011"/>
						<stop  offset="1" style="stop-color:#0A090A"/>
					</linearGradient>
					<path class="st38" d="M465.6,127.4c-0.4-0.4-0.9-0.7-1.5-0.7h-7.4c-0.6,0-1.2,0.3-1.5,0.7H465.6z"/>
				</g>
			</g>
			<g id="_x38_">
				<g>
					<g>
						<g>
							<linearGradient id="SVGID_13_" gradientUnits="userSpaceOnUse" x1="382.4031" y1="168.2406" x2="494.2726" y2="168.2406">
								<stop  offset="0" style="stop-color:#403F3F"/>
								<stop  offset="6.422020e-02" style="stop-color:#616060"/>
								<stop  offset="0.8042" style="stop-color:#616060"/>
								<stop  offset="0.8616" style="stop-color:#5D5C5C"/>
								<stop  offset="0.9238" style="stop-color:#504F4F"/>
								<stop  offset="0.9725" style="stop-color:#403F3F"/>
								<stop  offset="0.9838" style="stop-color:#302F2F"/>
								<stop  offset="1" style="stop-color:#1D1D1D"/>
							</linearGradient>
							<rect x="382.4" y="136.2" class="st39" width="111.9" height="64"/>
							<defs>
								<filter id="Adobe_OpacityMaskFilter" filterUnits="userSpaceOnUse" x="382.4" y="136.2" width="111.9" height="64">
									<feFlood  style="flood-color:white;flood-opacity:1" result="back"/>
									<feBlend  in="SourceGraphic" in2="back" mode="normal"/>
								</filter>
							</defs>
							<mask maskUnits="userSpaceOnUse" x="382.4" y="136.2" width="111.9" height="64" id="SVGID_14_">
								<g class="st40">
									<defs>
										<filter id="Adobe_OpacityMaskFilter_1_" filterUnits="userSpaceOnUse" x="382.4" y="136.2" width="111.9" height="64">
											<feFlood  style="flood-color:white;flood-opacity:1" result="back"/>
											<feBlend  in="SourceGraphic" in2="back" mode="normal"/>
										</filter>
									</defs>
									<mask maskUnits="userSpaceOnUse" x="382.4" y="136.2" width="111.9" height="64" id="SVGID_14_">
										<g class="st41">
										</g>
									</mask>
									<linearGradient id="SVGID_15_" gradientUnits="userSpaceOnUse" x1="438.3379" y1="148.2762" x2="438.3379" y2="164.3395">
										<stop  offset="0" style="stop-color:#FFFFFF"/>
										<stop  offset="0.1122" style="stop-color:#D4D4D4"/>
										<stop  offset="0.2965" style="stop-color:#959595"/>
										<stop  offset="0.4727" style="stop-color:#606060"/>
										<stop  offset="0.6358" style="stop-color:#363636"/>
										<stop  offset="0.7831" style="stop-color:#191919"/>
										<stop  offset="0.9094" style="stop-color:#060606"/>
										<stop  offset="1" style="stop-color:#000000"/>
									</linearGradient>
									<rect x="382.4" y="136.2" class="st42" width="111.9" height="64"/>
								</g>
							</mask>
							<linearGradient id="SVGID_16_" gradientUnits="userSpaceOnUse" x1="438.3379" y1="148.2762" x2="438.3379" y2="164.3395">
								<stop  offset="0" style="stop-color:#1D1D1D"/>
								<stop  offset="3.978926e-02" style="stop-color:#2B2B2B"/>
								<stop  offset="0.2392" style="stop-color:#6A6A6A"/>
								<stop  offset="0.4298" style="stop-color:#9F9F9F"/>
								<stop  offset="0.6062" style="stop-color:#C9C9C9"/>
								<stop  offset="0.7654" style="stop-color:#E6E6E6"/>
								<stop  offset="0.902" style="stop-color:#F9F9F9"/>
								<stop  offset="1" style="stop-color:#FFFFFF"/>
							</linearGradient>
							<rect x="382.4" y="136.2" class="st43" width="111.9" height="64"/>
							<linearGradient id="SVGID_17_" gradientUnits="userSpaceOnUse" x1="379.5284" y1="200.2525" x2="497.1474" y2="200.2525">
								<stop  offset="0" style="stop-color:#7C7C7C"/>
								<stop  offset="0.1418" style="stop-color:#9D9D9D"/>
								<stop  offset="0.3531" style="stop-color:#CACACA"/>
								<stop  offset="0.4601" style="stop-color:#DBDBDB"/>
								<stop  offset="0.5215" style="stop-color:#D6D6D6"/>
								<stop  offset="0.5967" style="stop-color:#C7C7C7"/>
								<stop  offset="0.6789" style="stop-color:#AEAEAE"/>
								<stop  offset="0.7663" style="stop-color:#8B8B8B"/>
								<stop  offset="0.8569" style="stop-color:#5F5F5F"/>
								<stop  offset="0.8596" style="stop-color:#5E5E5E"/>
								<stop  offset="0.8837" style="stop-color:#656565"/>
								<stop  offset="0.9197" style="stop-color:#7A7A7A"/>
								<stop  offset="0.9629" style="stop-color:#9B9B9B"/>
								<stop  offset="1" style="stop-color:#BDBDBD"/>
							</linearGradient>
							<path class="st44" d="M495.3,204.7H381.4c-2.5,0-2.5-9,0-9h113.9C497.8,195.8,497.8,204.7,495.3,204.7z"/>
							<linearGradient id="SVGID_18_" gradientUnits="userSpaceOnUse" x1="379.6105" y1="197.3391" x2="497.2297" y2="197.3391">
								<stop  offset="0" style="stop-color:#7C7C7C"/>
								<stop  offset="6.374645e-02" style="stop-color:#BCBCBC"/>
								<stop  offset="0.1272" style="stop-color:#FFFFFF"/>
								<stop  offset="0.2149" style="stop-color:#FFFFFF"/>
								<stop  offset="0.6184" style="stop-color:#FFFFFF"/>
								<stop  offset="0.6568" style="stop-color:#E1E1E1"/>
								<stop  offset="0.7541" style="stop-color:#9B9B9B"/>
								<stop  offset="0.8242" style="stop-color:#6F6F6F"/>
								<stop  offset="0.8596" style="stop-color:#5E5E5E"/>
								<stop  offset="0.8837" style="stop-color:#656565"/>
								<stop  offset="0.9197" style="stop-color:#7A7A7A"/>
								<stop  offset="0.9629" style="stop-color:#9B9B9B"/>
								<stop  offset="1" style="stop-color:#BDBDBD"/>
							</linearGradient>
							<path class="st45" d="M497.1,198.9c-0.2-1.7-0.8-3.2-1.8-3.2H381.4c-1,0-1.6,1.4-1.8,3.2H497.1z"/>
						</g>
						<linearGradient id="SVGID_19_" gradientUnits="userSpaceOnUse" x1="379.1903" y1="141.5755" x2="497.4855" y2="141.5755">
							<stop  offset="0" style="stop-color:#7C7C7C"/>
							<stop  offset="0.1861" style="stop-color:#BCBCBC"/>
							<stop  offset="0.3713" style="stop-color:#FFFFFF"/>
							<stop  offset="0.6184" style="stop-color:#FFFFFF"/>
							<stop  offset="0.6568" style="stop-color:#E1E1E1"/>
							<stop  offset="0.7541" style="stop-color:#9B9B9B"/>
							<stop  offset="0.8242" style="stop-color:#6F6F6F"/>
							<stop  offset="0.8596" style="stop-color:#5E5E5E"/>
							<stop  offset="0.8837" style="stop-color:#656565"/>
							<stop  offset="0.9197" style="stop-color:#7A7A7A"/>
							<stop  offset="0.9629" style="stop-color:#9B9B9B"/>
							<stop  offset="1" style="stop-color:#BDBDBD"/>
						</linearGradient>
						<path class="st46" d="M495.4,147.9H381.3c-1.1,0-2.1-0.9-2.1-2.1v-7.7c0-1.6,1.3-2.8,2.8-2.8h112.6c1.6,0,2.8,1.3,2.8,2.8v7.7
							C497.5,147,496.6,147.9,495.4,147.9z"/>
						<linearGradient id="SVGID_20_" gradientUnits="userSpaceOnUse" x1="438.338" y1="142.4475" x2="438.338" y2="135.2164">
							<stop  offset="0" style="stop-color:#0A090A"/>
							<stop  offset="0.2161" style="stop-color:#0C0B0C"/>
							<stop  offset="0.3002" style="stop-color:#131213"/>
							<stop  offset="0.3613" style="stop-color:#1F1E1F"/>
							<stop  offset="0.4113" style="stop-color:#302F30"/>
							<stop  offset="0.454" style="stop-color:#464546"/>
							<stop  offset="0.4888" style="stop-color:#5E5E5E"/>
							<stop  offset="0.578" style="stop-color:#646464"/>
							<stop  offset="0.6966" style="stop-color:#757575"/>
							<stop  offset="0.8318" style="stop-color:#909090"/>
							<stop  offset="0.9783" style="stop-color:#B7B7B7"/>
							<stop  offset="1" style="stop-color:#BDBDBD"/>
						</linearGradient>
						<path class="st47" d="M497.5,141.8v-3.4c0-1.7-1.4-3.1-3.1-3.1H382.3c-1.7,0-3.1,1.4-3.1,3.1v3.4H497.5z"/>
					</g>
					<linearGradient id="SVGID_21_" gradientUnits="userSpaceOnUse" x1="438.3379" y1="193.7964" x2="438.3379" y2="202.6923">
						<stop  offset="0" style="stop-color:#909090"/>
						<stop  offset="0.2999" style="stop-color:#818181"/>
						<stop  offset="0.8792" style="stop-color:#585858"/>
						<stop  offset="1" style="stop-color:#4F4F4F"/>
					</linearGradient>
					<path class="st48" d="M497.1,198.9H379.6c-0.3,2.6,0.3,5.8,1.8,5.8h113.9C496.8,204.7,497.4,201.5,497.1,198.9z"/>
					<g>
						<g>
							<linearGradient id="SVGID_22_" gradientUnits="userSpaceOnUse" x1="468.1698" y1="135.2878" x2="487.5674" y2="135.2878">
								<stop  offset="0" style="stop-color:#800400"/>
								<stop  offset="1.767782e-02" style="stop-color:#870400"/>
								<stop  offset="0.1265" style="stop-color:#AB0500"/>
								<stop  offset="0.2146" style="stop-color:#C20500"/>
								<stop  offset="0.2706" style="stop-color:#CA0500"/>
								<stop  offset="0.3494" style="stop-color:#DE1F19"/>
								<stop  offset="0.4606" style="stop-color:#F63D37"/>
								<stop  offset="0.5229" style="stop-color:#FF4942"/>
								<stop  offset="0.6011" style="stop-color:#FD463F"/>
								<stop  offset="0.655" style="stop-color:#F83D36"/>
								<stop  offset="0.7015" style="stop-color:#F02E27"/>
								<stop  offset="0.7436" style="stop-color:#E31812"/>
								<stop  offset="0.7706" style="stop-color:#D90600"/>
								<stop  offset="0.8031" style="stop-color:#C90600"/>
								<stop  offset="0.8874" style="stop-color:#A50500"/>
								<stop  offset="0.956" style="stop-color:#8F0400"/>
								<stop  offset="1" style="stop-color:#870400"/>
							</linearGradient>
							<path class="st49" d="M487.6,141.8h-19.3v-7.1c0-3.2,2.6-5.8,5.8-5.8h7.6c3.2,0,5.8,2.6,5.8,5.8V141.8z"/>
							<linearGradient id="SVGID_23_" gradientUnits="userSpaceOnUse" x1="477.9226" y1="134.0687" x2="477.9226" y2="129.1877">
								<stop  offset="0" style="stop-color:#780400"/>
								<stop  offset="0.1744" style="stop-color:#8A1710"/>
								<stop  offset="0.527" style="stop-color:#B84739"/>
								<stop  offset="1" style="stop-color:#FF9178"/>
							</linearGradient>
							<path class="st50" d="M472.3,132.7h11.2c1.6,0,3,0.8,4,1.9c-0.3-3.2-3-5.8-6.4-5.8h-6.4c-3.3,0-6,2.5-6.4,5.8
								C469.3,133.4,470.7,132.7,472.3,132.7z"/>
							<g>
								<defs>
									<path id="SVGID_24_" d="M487.6,141.8h-19.3v-7.1c0-3.2,2.6-5.8,5.8-5.8h7.6c3.2,0,5.8,2.6,5.8,5.8V141.8z"/>
								</defs>
								<clipPath id="SVGID_25_">
									<use xlink:href="#SVGID_24_"  style="overflow:visible;"/>
								</clipPath>
								<g class="st51">
									<g>
										<linearGradient id="SVGID_26_" gradientUnits="userSpaceOnUse" x1="486.6559" y1="138.4277" x2="486.6559" y2="122.9784">
											<stop  offset="0" style="stop-color:#780400"/>
											<stop  offset="0.1847" style="stop-color:#870400"/>
											<stop  offset="1" style="stop-color:#C70600"/>
										</linearGradient>
										<path class="st52" d="M487.2,138.3h-1.1c-0.8,0-1.5-0.7-1.5-1.5v-12.3c0-0.8,0.7-1.5,1.5-1.5h1.1c0.8,0,1.5,0.7,1.5,1.5
											v12.3C488.8,137.6,488.1,138.3,487.2,138.3z"/>
										<linearGradient id="SVGID_27_" gradientUnits="userSpaceOnUse" x1="480.8719" y1="138.4277" x2="480.8719" y2="122.9784">
											<stop  offset="0" style="stop-color:#780400"/>
											<stop  offset="0.1847" style="stop-color:#870400"/>
											<stop  offset="1" style="stop-color:#C70600"/>
										</linearGradient>
										<path class="st53" d="M481.4,138.3h-1.1c-0.8,0-1.5-0.7-1.5-1.5v-12.3c0-0.8,0.7-1.5,1.5-1.5h1.1c0.8,0,1.5,0.7,1.5,1.5
											v12.3C483,137.6,482.3,138.3,481.4,138.3z"/>
										<linearGradient id="SVGID_28_" gradientUnits="userSpaceOnUse" x1="475.088" y1="138.4277" x2="475.088" y2="122.9784">
											<stop  offset="0" style="stop-color:#780400"/>
											<stop  offset="0.1847" style="stop-color:#870400"/>
											<stop  offset="1" style="stop-color:#C70600"/>
										</linearGradient>
										<path class="st54" d="M475.7,138.3h-1.1c-0.8,0-1.5-0.7-1.5-1.5v-12.3c0-0.8,0.7-1.5,1.5-1.5h1.1c0.8,0,1.5,0.7,1.5,1.5
											v12.3C477.2,137.6,476.5,138.3,475.7,138.3z"/>
										<linearGradient id="SVGID_29_" gradientUnits="userSpaceOnUse" x1="469.304" y1="138.4277" x2="469.304" y2="122.9784">
											<stop  offset="0" style="stop-color:#780400"/>
											<stop  offset="0.1847" style="stop-color:#870400"/>
											<stop  offset="1" style="stop-color:#C70600"/>
										</linearGradient>
										<path class="st55" d="M469.9,138.3h-1.1c-0.8,0-1.5-0.7-1.5-1.5v-12.3c0-0.8,0.7-1.5,1.5-1.5h1.1c0.8,0,1.5,0.7,1.5,1.5
											v12.3C471.4,137.6,470.7,138.3,469.9,138.3z"/>
									</g>
									<g>
										<linearGradient id="SVGID_30_" gradientUnits="userSpaceOnUse" x1="486.6558" y1="136.6455" x2="486.6558" y2="138.5503">
											<stop  offset="0" style="stop-color:#780400"/>
											<stop  offset="0.1744" style="stop-color:#8A1710"/>
											<stop  offset="0.527" style="stop-color:#B84739"/>
											<stop  offset="1" style="stop-color:#FF9178"/>
										</linearGradient>
										<path class="st56" d="M488.8,136.6c0,0,0.1,0.4-0.2,1c-0.1,0.3-0.4,0.6-0.8,0.7c-0.4,0.2-0.8,0.2-1.2,0.2
											c-0.4,0-0.8,0-1.2-0.2c-0.4-0.2-0.6-0.5-0.8-0.7c-0.3-0.6-0.1-1-0.2-1c0,0,0,0.4,0.4,0.8c0.2,0.2,0.4,0.4,0.7,0.5
											c0.3,0.1,0.6,0.1,1,0.1c0.4,0,0.7,0,1-0.1c0.3-0.1,0.6-0.3,0.7-0.5C488.7,137.1,488.8,136.6,488.8,136.6z"/>
										<linearGradient id="SVGID_31_" gradientUnits="userSpaceOnUse" x1="480.8719" y1="136.6455" x2="480.8719" y2="138.5503">
											<stop  offset="0" style="stop-color:#780400"/>
											<stop  offset="0.1744" style="stop-color:#8A1710"/>
											<stop  offset="0.527" style="stop-color:#B84739"/>
											<stop  offset="1" style="stop-color:#FF9178"/>
										</linearGradient>
										<path class="st57" d="M483,136.6c0,0,0.1,0.4-0.2,1c-0.1,0.3-0.4,0.6-0.8,0.7c-0.4,0.2-0.8,0.2-1.2,0.2
											c-0.4,0-0.8,0-1.2-0.2c-0.4-0.2-0.6-0.5-0.8-0.7c-0.3-0.6-0.1-1-0.2-1c0,0,0,0.4,0.4,0.8c0.2,0.2,0.4,0.4,0.7,0.5
											c0.3,0.1,0.6,0.1,1,0.1c0.4,0,0.7,0,1-0.1c0.3-0.1,0.6-0.3,0.7-0.5C483,137.1,483,136.6,483,136.6z"/>
										<linearGradient id="SVGID_32_" gradientUnits="userSpaceOnUse" x1="475.0879" y1="136.6455" x2="475.0879" y2="138.5503">
											<stop  offset="0" style="stop-color:#780400"/>
											<stop  offset="0.1744" style="stop-color:#8A1710"/>
											<stop  offset="0.527" style="stop-color:#B84739"/>
											<stop  offset="1" style="stop-color:#FF9178"/>
										</linearGradient>
										<path class="st58" d="M477.2,136.6c0,0,0.1,0.4-0.2,1c-0.1,0.3-0.4,0.6-0.8,0.7c-0.4,0.2-0.8,0.2-1.2,0.2
											c-0.4,0-0.8,0-1.2-0.2c-0.4-0.2-0.6-0.5-0.8-0.7c-0.3-0.6-0.1-1-0.2-1c0,0,0,0.4,0.4,0.8c0.2,0.2,0.4,0.4,0.7,0.5
											c0.3,0.1,0.6,0.1,1,0.1c0.4,0,0.7,0,1-0.1c0.3-0.1,0.6-0.3,0.7-0.5C477.2,137.1,477.2,136.6,477.2,136.6z"/>
										<linearGradient id="SVGID_33_" gradientUnits="userSpaceOnUse" x1="469.3039" y1="136.6455" x2="469.3039" y2="138.5503">
											<stop  offset="0" style="stop-color:#780400"/>
											<stop  offset="0.1744" style="stop-color:#8A1710"/>
											<stop  offset="0.527" style="stop-color:#B84739"/>
											<stop  offset="1" style="stop-color:#FF9178"/>
										</linearGradient>
										<path class="st59" d="M471.4,136.6c0,0,0.1,0.4-0.2,1c-0.1,0.3-0.4,0.6-0.8,0.7c-0.4,0.2-0.8,0.2-1.2,0.2
											c-0.4,0-0.8,0-1.2-0.2c-0.4-0.2-0.6-0.5-0.8-0.7c-0.3-0.6-0.1-1-0.2-1c0,0,0,0.4,0.4,0.8c0.2,0.2,0.4,0.4,0.7,0.5
											c0.3,0.1,0.6,0.1,1,0.1c0.4,0,0.7,0,1-0.1c0.3-0.1,0.6-0.3,0.7-0.5C471.4,137.1,471.4,136.6,471.4,136.6z"/>
									</g>
								</g>
							</g>
						</g>
						<g>
							<linearGradient id="SVGID_34_" gradientUnits="userSpaceOnUse" x1="388.8399" y1="135.2878" x2="408.2375" y2="135.2878">
								<stop  offset="0" style="stop-color:#005080"/>
								<stop  offset="1.767782e-02" style="stop-color:#005487"/>
								<stop  offset="0.1265" style="stop-color:#006DAB"/>
								<stop  offset="0.2146" style="stop-color:#007CC2"/>
								<stop  offset="0.2706" style="stop-color:#0081CA"/>
								<stop  offset="0.3453" style="stop-color:#1894DD"/>
								<stop  offset="0.4591" style="stop-color:#36ACF6"/>
								<stop  offset="0.5229" style="stop-color:#42B5FF"/>
								<stop  offset="0.6015" style="stop-color:#3FB3FD"/>
								<stop  offset="0.6557" style="stop-color:#36ADF8"/>
								<stop  offset="0.7025" style="stop-color:#27A2EF"/>
								<stop  offset="0.7449" style="stop-color:#1194E3"/>
								<stop  offset="0.7706" style="stop-color:#0088D9"/>
								<stop  offset="0.8031" style="stop-color:#007EC9"/>
								<stop  offset="0.8874" style="stop-color:#0068A5"/>
								<stop  offset="0.956" style="stop-color:#005A8F"/>
								<stop  offset="1" style="stop-color:#005587"/>
							</linearGradient>
							<path class="st60" d="M408.2,141.8H389v-7.1c0-3.2,2.6-5.8,5.8-5.8h7.6c3.2,0,5.8,2.6,5.8,5.8V141.8z"/>
							<linearGradient id="SVGID_35_" gradientUnits="userSpaceOnUse" x1="398.5926" y1="134.0687" x2="398.5926" y2="129.1877">
								<stop  offset="0" style="stop-color:#003778"/>
								<stop  offset="0.181" style="stop-color:#11438B"/>
								<stop  offset="0.547" style="stop-color:#3C61BB"/>
								<stop  offset="1" style="stop-color:#788CFF"/>
							</linearGradient>
							<path class="st61" d="M393,132.7h11.2c1.6,0,3,0.8,4,1.9c-0.3-3.2-3-5.8-6.4-5.8h-6.4c-3.3,0-6,2.5-6.4,5.8
								C390,133.4,391.4,132.7,393,132.7z"/>
							<g>
								<defs>
									<path id="SVGID_36_" d="M408.2,141.8H389v-7.1c0-3.2,2.6-5.8,5.8-5.8h7.6c3.2,0,5.8,2.6,5.8,5.8V141.8z"/>
								</defs>
								<clipPath id="SVGID_37_">
									<use xlink:href="#SVGID_36_"  style="overflow:visible;"/>
								</clipPath>
								<g class="st62">
									<g>
										<linearGradient id="SVGID_38_" gradientUnits="userSpaceOnUse" x1="407.3259" y1="138.4277" x2="407.3259" y2="122.9784">
											<stop  offset="0" style="stop-color:#003778"/>
											<stop  offset="0.1847" style="stop-color:#003E87"/>
											<stop  offset="1" style="stop-color:#005EC7"/>
										</linearGradient>
										<path class="st63" d="M407.9,138.3h-1.1c-0.8,0-1.5-0.7-1.5-1.5v-12.3c0-0.8,0.7-1.5,1.5-1.5h1.1c0.8,0,1.5,0.7,1.5,1.5
											v12.3C409.4,137.6,408.7,138.3,407.9,138.3z"/>
										<linearGradient id="SVGID_39_" gradientUnits="userSpaceOnUse" x1="401.542" y1="138.4277" x2="401.542" y2="122.9784">
											<stop  offset="0" style="stop-color:#003778"/>
											<stop  offset="0.1847" style="stop-color:#003E87"/>
											<stop  offset="1" style="stop-color:#005EC7"/>
										</linearGradient>
										<path class="st64" d="M402.1,138.3H401c-0.8,0-1.5-0.7-1.5-1.5v-12.3c0-0.8,0.7-1.5,1.5-1.5h1.1c0.8,0,1.5,0.7,1.5,1.5
											v12.3C403.6,137.6,403,138.3,402.1,138.3z"/>
										<linearGradient id="SVGID_40_" gradientUnits="userSpaceOnUse" x1="395.758" y1="138.4277" x2="395.758" y2="122.9784">
											<stop  offset="0" style="stop-color:#003778"/>
											<stop  offset="0.1847" style="stop-color:#003E87"/>
											<stop  offset="1" style="stop-color:#005EC7"/>
										</linearGradient>
										<path class="st65" d="M396.3,138.3h-1.1c-0.8,0-1.5-0.7-1.5-1.5v-12.3c0-0.8,0.7-1.5,1.5-1.5h1.1c0.8,0,1.5,0.7,1.5,1.5
											v12.3C397.9,137.6,397.2,138.3,396.3,138.3z"/>
										<linearGradient id="SVGID_41_" gradientUnits="userSpaceOnUse" x1="389.9741" y1="138.4277" x2="389.9741" y2="122.9784">
											<stop  offset="0" style="stop-color:#003778"/>
											<stop  offset="0.1847" style="stop-color:#003E87"/>
											<stop  offset="1" style="stop-color:#005EC7"/>
										</linearGradient>
										<path class="st66" d="M390.5,138.3h-1.1c-0.8,0-1.5-0.7-1.5-1.5v-12.3c0-0.8,0.7-1.5,1.5-1.5h1.1c0.8,0,1.5,0.7,1.5,1.5
											v12.3C392.1,137.6,391.4,138.3,390.5,138.3z"/>
									</g>
									<g>
										<linearGradient id="SVGID_42_" gradientUnits="userSpaceOnUse" x1="407.3259" y1="136.6455" x2="407.3259" y2="138.5503">
											<stop  offset="0" style="stop-color:#003778"/>
											<stop  offset="0.181" style="stop-color:#11438B"/>
											<stop  offset="0.547" style="stop-color:#3C61BB"/>
											<stop  offset="1" style="stop-color:#788CFF"/>
										</linearGradient>
										<path class="st67" d="M409.4,136.6c0,0,0.1,0.4-0.2,1c-0.1,0.3-0.4,0.6-0.8,0.7c-0.4,0.2-0.8,0.2-1.2,0.2
											c-0.4,0-0.8,0-1.2-0.2c-0.4-0.2-0.6-0.5-0.8-0.7c-0.3-0.6-0.1-1-0.2-1c0,0,0,0.4,0.4,0.8c0.2,0.2,0.4,0.4,0.7,0.5
											c0.3,0.1,0.6,0.1,1,0.1c0.4,0,0.7,0,1-0.1c0.3-0.1,0.6-0.3,0.7-0.5C409.4,137.1,409.4,136.6,409.4,136.6z"/>
										<linearGradient id="SVGID_43_" gradientUnits="userSpaceOnUse" x1="401.5419" y1="136.6455" x2="401.5419" y2="138.5503">
											<stop  offset="0" style="stop-color:#003778"/>
											<stop  offset="0.181" style="stop-color:#11438B"/>
											<stop  offset="0.547" style="stop-color:#3C61BB"/>
											<stop  offset="1" style="stop-color:#788CFF"/>
										</linearGradient>
										<path class="st68" d="M403.6,136.6c0,0,0.1,0.4-0.2,1c-0.1,0.3-0.4,0.6-0.8,0.7c-0.4,0.2-0.8,0.2-1.2,0.2
											c-0.4,0-0.8,0-1.2-0.2c-0.4-0.2-0.6-0.5-0.8-0.7c-0.3-0.6-0.1-1-0.2-1c0,0,0,0.4,0.4,0.8c0.2,0.2,0.4,0.4,0.7,0.5
											c0.3,0.1,0.6,0.1,1,0.1c0.4,0,0.7,0,1-0.1c0.3-0.1,0.6-0.3,0.7-0.5C403.6,137.1,403.6,136.6,403.6,136.6z"/>
										<linearGradient id="SVGID_44_" gradientUnits="userSpaceOnUse" x1="395.758" y1="136.6455" x2="395.758" y2="138.5503">
											<stop  offset="0" style="stop-color:#003778"/>
											<stop  offset="0.181" style="stop-color:#11438B"/>
											<stop  offset="0.547" style="stop-color:#3C61BB"/>
											<stop  offset="1" style="stop-color:#788CFF"/>
										</linearGradient>
										<path class="st69" d="M397.9,136.6c0,0,0.1,0.4-0.2,1c-0.1,0.3-0.4,0.6-0.8,0.7c-0.4,0.2-0.8,0.2-1.2,0.2
											c-0.4,0-0.8,0-1.2-0.2c-0.4-0.2-0.6-0.5-0.8-0.7c-0.3-0.6-0.1-1-0.2-1c0,0,0,0.4,0.4,0.8c0.2,0.2,0.4,0.4,0.7,0.5
											c0.3,0.1,0.6,0.1,1,0.1c0.4,0,0.7,0,1-0.1c0.3-0.1,0.6-0.3,0.7-0.5C397.8,137.1,397.9,136.6,397.9,136.6z"/>
										<linearGradient id="SVGID_45_" gradientUnits="userSpaceOnUse" x1="389.974" y1="136.6455" x2="389.974" y2="138.5503">
											<stop  offset="0" style="stop-color:#003778"/>
											<stop  offset="0.181" style="stop-color:#11438B"/>
											<stop  offset="0.547" style="stop-color:#3C61BB"/>
											<stop  offset="1" style="stop-color:#788CFF"/>
										</linearGradient>
										<path class="st70" d="M392.1,136.6c0,0,0.1,0.4-0.2,1c-0.1,0.3-0.4,0.6-0.8,0.7c-0.4,0.2-0.8,0.2-1.2,0.2
											c-0.4,0-0.8,0-1.2-0.2c-0.4-0.2-0.6-0.5-0.8-0.7c-0.3-0.6-0.1-1-0.2-1c0,0,0,0.4,0.4,0.8c0.2,0.2,0.4,0.4,0.7,0.5
											c0.3,0.1,0.6,0.1,1,0.1c0.4,0,0.7,0,1-0.1c0.3-0.1,0.6-0.3,0.7-0.5C392.1,137.1,392.1,136.6,392.1,136.6z"/>
									</g>
								</g>
							</g>
						</g>
					</g>
				</g>
				<g>
					<polygon class="st71" points="409,171.5 388.7,171.5 404.1,156 419.6,156 409.7,165.9 429.7,165.9 387.6,194 					"/>
					<polygon class="st72" points="389.6,192.3 410.6,170.8 390.4,170.8 404.4,156.7 417.9,156.7 408.1,166.6 427.4,166.6 					"/>
					<linearGradient id="SVGID_46_" gradientUnits="userSpaceOnUse" x1="408.626" y1="188.7537" x2="408.626" y2="150.1081">
						<stop  offset="0" style="stop-color:#E18200"/>
						<stop  offset="0.419" style="stop-color:#EC9313"/>
						<stop  offset="1" style="stop-color:#FFB033"/>
					</linearGradient>
					<polygon class="st73" points="416.3,157.4 404.7,157.4 392,170.1 412.3,170.1 392.6,189.7 425.2,167.3 406.4,167.3 					"/>
					<linearGradient id="SVGID_47_" gradientUnits="userSpaceOnUse" x1="408.4604" y1="187.6117" x2="408.4604" y2="155.9518">
						<stop  offset="0" style="stop-color:#BB6D00"/>
						<stop  offset="0.2004" style="stop-color:#C67D13"/>
						<stop  offset="0.6028" style="stop-color:#E1A743"/>
						<stop  offset="1" style="stop-color:#FFD578"/>
					</linearGradient>
					<polygon class="st74" points="413.3,169.4 393,169.4 404.9,157.6 415.3,157.6 405.4,167.4 423.9,167.4 396.1,186.6 					"/>
					<linearGradient id="SVGID_48_" gradientUnits="userSpaceOnUse" x1="407.9145" y1="161.9542" x2="408.3018" y2="157.9096">
						<stop  offset="0" style="stop-color:#F5C566"/>
						<stop  offset="1" style="stop-color:#FFE3A6"/>
					</linearGradient>
					<polygon class="st75" points="411.2,160.7 413.6,158.2 405.1,158.2 402.7,160.7 					"/>
					<linearGradient id="SVGID_49_" gradientUnits="userSpaceOnUse" x1="408.2899" y1="166.7221" x2="407.9457" y2="172.2297">
						<stop  offset="0" style="stop-color:#F5C566"/>
						<stop  offset="1" style="stop-color:#FFE3A6"/>
					</linearGradient>
					<path class="st76" d="M412.2,171.4h4.6l4.9-3.3h-8.8c-6.1,0-12.1,0.2-18.2,0.6h20.3L412.2,171.4z"/>
				</g>
			</g>
		</g>
		<g>
			<rect x="427.1" y="160.1" class="st20" width="57.6" height="28.5"/>
			<rect x="427.8" y="171.7" class="st21" width="56.2" height="13.1"/>
			<path class="st22" d="M431.7,157.7h3.1c0.4,0,0.7,0.3,0.7,0.7v3.7c0,0.4-0.3,0.7-0.7,0.7h-3.1c-0.4,0-0.7-0.3-0.7-0.7v-3.7
				C431,158,431.3,157.7,431.7,157.7"/>
			<path class="st22" d="M477,157.7h3.1c0.4,0,0.7,0.3,0.7,0.7v3.7c0,0.4-0.3,0.7-0.7,0.7H477c-0.4,0-0.7-0.3-0.7-0.7v-3.7
				C476.3,158,476.6,157.7,477,157.7"/>
			<rect x="427.8" y="184.8" class="st23" width="56.2" height="2.7"/>
			<path class="st9" d="M477.4,185.9l0.2,0.4h-0.3L477.4,185.9z M477.7,186.7h0.2l-0.5-1.1h-0.1l-0.5,1.1h0.2l0.1-0.2h0.5
				L477.7,186.7z M476.1,186.7h0.2v-1.1h-0.2V186.7z M475.3,186.2v0.3c-0.1,0-0.1,0-0.2,0c-0.2,0-0.4-0.1-0.4-0.4
				c0-0.2,0.2-0.4,0.4-0.4c0.2,0,0.2,0.1,0.3,0.1l0.1-0.2c0,0-0.2-0.1-0.4-0.1c-0.3,0-0.6,0.2-0.6,0.6c0,0.3,0.2,0.6,0.6,0.6
				c0.2,0,0.4-0.1,0.4-0.1v-0.4H475.3z M473.5,185.9l0.2,0.4h-0.3L473.5,185.9z M473.8,186.7h0.2l-0.5-1.1h-0.1l-0.5,1.1h0.2
				l0.1-0.2h0.5L473.8,186.7z M472.4,186.7l0-1.1h-0.1l-0.4,0.7l-0.4-0.7h-0.1l0,1.1h0.2l0-0.7l0.3,0.5h0.1l0.3-0.5l0,0.7H472.4z
				 M469.9,185.9l0.2,0.4h-0.3L469.9,185.9z M470.2,186.7h0.2l-0.5-1.1h-0.1l-0.5,1.1h0.2l0.1-0.2h0.5L470.2,186.7z M468.3,186.5
				h-0.2v-0.7h0.2c0.2,0,0.4,0.1,0.4,0.4C468.7,186.4,468.5,186.5,468.3,186.5z M468.3,185.6h-0.4v1.1h0.4c0.3,0,0.6-0.2,0.6-0.5
				C468.9,185.8,468.7,185.6,468.3,185.6z M466.5,185.9l0.2,0.4h-0.3L466.5,185.9z M466.8,186.7h0.2l-0.5-1.1h-0.1l-0.5,1.1h0.2
				l0.1-0.2h0.5L466.8,186.7z M465.2,185.6v0.5h-0.6v-0.5h-0.2v1.1h0.2v-0.5h0.6v0.5h0.2v-1.1H465.2z M463.4,186.5v-0.9h-0.2v1.1
				h0.7v-0.2H463.4z M462.3,186.7h0.2v-1.1h-0.2V186.7z M460.9,185.9l0.2,0.4h-0.3L460.9,185.9z M461.2,186.7h0.2l-0.5-1.1h-0.1
				l-0.5,1.1h0.2l0.1-0.2h0.5L461.2,186.7z M459.6,185.6v0.7l-0.7-0.7h-0.1v1.1h0.2V186l0.7,0.7h0.1v-1.1H459.6z M457.5,186.7
				c0.2,0,0.4-0.1,0.4-0.3c0-0.2-0.1-0.3-0.3-0.3c-0.2,0-0.2-0.1-0.2-0.1c0-0.1,0.1-0.1,0.2-0.1c0.1,0,0.2,0,0.3,0.1l0.1-0.2
				c-0.1-0.1-0.2-0.1-0.4-0.1c-0.2,0-0.4,0.1-0.4,0.3c0,0.2,0.1,0.3,0.3,0.3c0.2,0,0.2,0.1,0.2,0.2c0,0.1-0.1,0.1-0.2,0.1
				c-0.1,0-0.2,0-0.3-0.1l-0.1,0.2C457.2,186.7,457.3,186.7,457.5,186.7z M456.1,185.9l0.2,0.4h-0.3L456.1,185.9z M456.4,186.7h0.2
				l-0.5-1.1H456l-0.5,1.1h0.2l0.1-0.2h0.5L456.4,186.7z M454.8,186.7h0.2v-1.1h-0.2V186.7z M453.5,185.8h0.2c0.1,0,0.2,0.1,0.2,0.2
				c0,0.1-0.1,0.2-0.2,0.2h-0.2V185.8z M454.2,186.7l-0.3-0.4c0.1-0.1,0.2-0.2,0.2-0.3c0-0.2-0.2-0.4-0.4-0.4h-0.4v1.1h0.2v-0.3h0.2
				h0l0.2,0.3H454.2z M452.2,186.5v-0.3h0.5v-0.2h-0.5v-0.3h0.5v-0.2H452v1.1h0.8v-0.2H452.2z M451.4,185.6h-0.9v0.2h0.4v0.9h0.2
				v-0.9h0.4V185.6z M449.6,185.9l0.2,0.4h-0.3L449.6,185.9z M449.9,186.7h0.2l-0.5-1.1h-0.1l-0.5,1.1h0.2l0.1-0.2h0.5L449.9,186.7z
				 M448.2,186.5H448v-0.3h0.2c0.1,0,0.2,0.1,0.2,0.1C448.4,186.5,448.3,186.5,448.2,186.5z M448.4,185.9c0,0.1-0.1,0.1-0.2,0.1H448
				v-0.3h0.2C448.3,185.8,448.4,185.8,448.4,185.9z M448.4,186.1c0.1,0,0.2-0.1,0.2-0.2c0-0.2-0.1-0.3-0.4-0.3h-0.4v1.1h0.4
				c0.3,0,0.4-0.1,0.4-0.3C448.6,186.3,448.5,186.2,448.4,186.1z M446.2,186.5v-0.3h0.5v-0.2h-0.5v-0.3h0.5v-0.2H446v1.1h0.8v-0.2
				H446.2z M444.8,186.5h-0.2v-0.7h0.2c0.2,0,0.4,0.1,0.4,0.4C445.2,186.4,445.1,186.5,444.8,186.5z M444.9,185.6h-0.4v1.1h0.4
				c0.3,0,0.6-0.2,0.6-0.5C445.4,185.8,445.2,185.6,444.9,185.6z M443,185.9l0.2,0.4h-0.3L443,185.9z M443.4,186.7h0.2l-0.5-1.1H443
				l-0.5,1.1h0.2l0.1-0.2h0.5L443.4,186.7z M441.6,186.7c0.2,0,0.4-0.2,0.4-0.4v-0.7h-0.2v0.7c0,0.1-0.1,0.2-0.2,0.2
				c-0.1,0-0.1,0-0.1,0l-0.1,0.2C441.4,186.7,441.5,186.7,441.6,186.7z M440.4,186.5c-0.2,0-0.4-0.2-0.4-0.4c0-0.2,0.2-0.4,0.4-0.4
				c0.2,0,0.4,0.2,0.4,0.4C440.7,186.4,440.6,186.5,440.4,186.5z M440.4,186.7c0.3,0,0.6-0.2,0.6-0.6c0-0.3-0.2-0.6-0.6-0.6
				c-0.3,0-0.6,0.2-0.6,0.6C439.8,186.5,440,186.7,440.4,186.7z M438.8,186.5v-0.9h-0.2v1.1h0.7v-0.2H438.8z M437.2,185.9l0.2,0.4
				h-0.3L437.2,185.9z M437.5,186.7h0.2l-0.5-1.1h-0.1l-0.5,1.1h0.2l0.1-0.2h0.5L437.5,186.7z M435.7,186.7c0.3,0,0.5-0.2,0.5-0.5
				v-0.6H436v0.6c0,0.1-0.1,0.3-0.3,0.3c-0.2,0-0.3-0.1-0.3-0.3v-0.6h-0.2v0.6C435.2,186.6,435.4,186.7,435.7,186.7z M434.3,186.7
				c0.2,0,0.4-0.1,0.4-0.3c0-0.2-0.1-0.3-0.3-0.3c-0.2,0-0.2-0.1-0.2-0.1c0-0.1,0.1-0.1,0.2-0.1c0.1,0,0.2,0,0.3,0.1l0.1-0.2
				c-0.1-0.1-0.2-0.1-0.4-0.1c-0.2,0-0.4,0.1-0.4,0.3c0,0.2,0.1,0.3,0.3,0.3c0.2,0,0.2,0.1,0.2,0.2c0,0.1-0.1,0.1-0.2,0.1
				c-0.1,0-0.2,0-0.3-0.1l-0.1,0.2C433.9,186.7,434.1,186.7,434.3,186.7z"/>
			<rect x="427.8" y="160.9" class="st23" width="56.2" height="10.8"/>
			<path class="st9" d="M478.2,170.3c1.7,0,2.7-1,2.7-2.4c0-1.6-1.1-2.1-2.1-2.5c-1-0.3-1.4-0.5-1.4-0.9c0-0.5,0.4-0.6,1-0.6
				c0.7,0,1.3,0.3,1.8,0.6l0.8-1.4c-0.6-0.5-1.5-0.8-2.6-0.8c-1.7,0-2.8,0.9-2.8,2.4c0,1.5,1.1,1.9,2.2,2.3c1,0.3,1.4,0.5,1.4,1
				c0,0.5-0.4,0.7-0.9,0.7c-0.8,0-1.5-0.3-2.2-0.9l-0.9,1.5C476,169.9,476.9,170.3,478.2,170.3 M471.2,165l0.9,2.2h-1.7L471.2,165z
				 M473.2,170.2h1.9l-3.2-7.9h-1.1l-3.3,7.9h1.9l0.5-1.4h2.8L473.2,170.2z M464.9,170.2h1.8v-7.9h-1.8V170.2z M459.7,164h0.8
				c0.8,0,1.4,0.5,1.4,1.3c0,0.7-0.5,1.2-1.4,1.2h-0.8V164z M464,170.2l-1.6-2.5c0.9-0.5,1.4-1.3,1.4-2.4c0-1.7-1.2-2.9-3.1-2.9
				h-2.7v7.9h1.8v-2.1h0.9h0l1.3,2.1H464z M453.1,168.6v-1.5h3v-1.7h-3V164h3.4v-1.7h-5.2v7.9h5.2v-1.6H453.1z M450.4,162.3h-6.6
				v1.7h2.4v6.2h1.8V164h2.4V162.3z M440.8,165l0.9,2.2H440L440.8,165z M442.8,170.2h1.9l-3.2-7.9h-1.1l-3.3,7.9h1.9l0.5-1.4h2.8
				L442.8,170.2z M433.9,168.7h-1.3V167h1.3c0.8,0,1.2,0.3,1.2,0.9C435.1,168.4,434.7,168.7,433.9,168.7z M434.8,164.7
				c0,0.5-0.3,0.8-1.1,0.8h-1.2v-1.6h1.2C434.5,163.9,434.8,164.2,434.8,164.7z M435.4,166.1c0.6-0.2,1.1-0.9,1.1-1.7
				c0-1.1-0.8-2-2.8-2h-2.9v7.9h3.1c2,0,2.9-0.9,2.9-2.3C436.8,167.1,436.3,166.3,435.4,166.1z"/>
			<path class="st24" d="M478.2,176.4l1.1,2.5h-2.1L478.2,176.4z M480.6,182.3h2.3l-4-9h-1.3l-4,9h2.3l0.7-1.6h3.5L480.6,182.3z
				 M470.1,178h-1v-2.8h1c1.1,0,1.7,0.7,1.7,1.4C471.8,177.3,471.3,178,470.1,178z M470.3,173.4H467v9h2.1v-2.4l1,0
				c2.3,0,3.8-1.3,3.8-3.2C474,174.7,472.5,173.4,470.3,173.4z M462.8,182.3h2.1v-9h-2.1V182.3z M456.4,175.2h1c1,0,1.7,0.6,1.7,1.5
				c0,0.8-0.7,1.4-1.7,1.4h-1V175.2z M461.7,182.3l-2-2.9c1.1-0.5,1.7-1.5,1.7-2.8c0-2-1.5-3.3-3.7-3.3h-3.3v9h2.1v-2.4h1.1h0
				l1.6,2.4H461.7z M435.3,175.2v-1.9H429v9h2.1v-2.8h3.6v-1.9h-3.6v-2.4H435.3z M438.9,180.5v-7.1h-2.1v9h6.2v-1.9H438.9z"/>
			<path class="st25" d="M448.7,179.4l-3.2,1.3l2.4-8.1c-2.6,0.1-4.8,2.3-4.8,5c0,2.6,2,4.8,4.6,5L448.7,179.4z"/>
			<path class="st25" d="M450.6,173.4v-0.8l-2.8,6.1l2.9-1.1l-3.6,7.1l1.6-2.1c2.5-0.2,4.5-2.4,4.5-5
				C453.1,175.8,452.1,174.2,450.6,173.4"/>
			<polygon class="st9" points="433,160.5 433,159.6 432.2,159.6 432.2,159.3 433,159.3 433,158.4 433.4,158.4 433.4,159.3 
				434.3,159.3 434.3,159.6 433.4,159.6 433.4,160.5 			"/>
			<rect x="477.7" y="159.1" class="st9" width="1.7" height="0.5"/>
			<rect x="425.2" y="156" class="st26" width="61.6" height="33.1"/>
		</g>
	</g>
</g>
</svg>
