<?xml version="1.0" encoding="utf-8"?>
<!-- Generator: Adobe Illustrator 24.1.2, SVG Export Plug-In . SVG Version: 6.00 Build 0)  -->
<svg version="1.1" id="Layer_1" xmlns="http://www.w3.org/2000/svg" xmlns:xlink="http://www.w3.org/1999/xlink" x="0px" y="0px"
	 viewBox="0 0 500 335" style="enable-background:new 0 0 500 335;" xml:space="preserve">
<style type="text/css">
	.st0{fill:#FAEDE0;}
	.st1{fill:#EAD6C6;}
	.st2{fill:#00AFC6;}
	.st3{fill:#FF6119;}
	.st4{fill:#FF6861;}
	.st5{fill:#FF351F;}
	.st6{fill:#FDFDFD;}
	.st7{fill:#C2ECFA;}
	.st8{fill:#FADABF;}
	.st9{fill:#F1C09B;}
	.st10{fill:#58DCEF;}
	.st11{fill:#00CDDE;}
	.st12{fill:#FBCA00;}
	.st13{fill:#FFA019;}
	.st14{opacity:0.15;fill:#A8551C;}
	.st15{fill:#7CF6F4;}
	.st16{fill:#666666;}
	.st17{fill:#2AEEEE;}
	.st18{fill:#FF9148;}
	.st19{fill:#00D8D5;}
	.st20{fill:#FF4F46;}
	.st21{fill:#FFEAE9;}
	.st22{fill:#F0D1D1;}
	.st23{fill:#FF3030;}
</style>
<g>
	<g>
		<polygon class="st0" points="498.1,299.7 321.2,330 157,306.7 2.4,330 51.1,168.1 165.2,144.8 304.9,168.1 434.1,148.3 		"/>
		<polygon class="st1" points="304.9,168.1 321.2,330 157,306.7 165.4,154.3 		"/>
		<g>
			<path class="st2" d="M165.4,154.3l138,23l1.5,0.2l1.5-0.2l122-18.7l56.6,133.9l-163.9,28l-162.7-23.1l-1.3-0.2l-1.3,0.2
				L15.6,318.6l42.8-142.5L165.4,154.3 M165.2,144.8L51.1,168.1L2.4,330L157,306.7L321.2,330l176.9-30.3l-64-151.4l-129.2,19.8
				L165.2,144.8L165.2,144.8z"/>
		</g>
		<polygon class="st2" points="165.2,144.8 165.4,154.3 305.8,177.7 304.9,168.1 		"/>
		<polygon class="st2" points="320.2,320.7 321.2,330 157,306.7 157,297.3 		"/>
	</g>
	<g>
		<g>
			<g>
				<path class="st3" d="M281.8,41.8c0,21.7-39.3,71.5-39.3,71.5s-39.3-49.8-39.3-71.5c0-21.7,17.6-39.3,39.3-39.3
					C264.2,2.6,281.8,20.1,281.8,41.8z"/>
			</g>
		</g>
		<g>
			<g>
				<path class="st4" d="M281.8,41.8c0,21.7-39.3,71.5-39.3,71.5s-39.3-49.8-39.3-71.5c0-21.7,17.6-39.3,39.3-39.3
					C264.2,2.6,281.8,20.1,281.8,41.8z"/>
			</g>
		</g>
		<path class="st5" d="M242.5,2.6v110.7c0,0,39.3-49.8,39.3-71.5S264.2,2.6,242.5,2.6z"/>
		<g>
			<g>
				<circle class="st6" cx="242.5" cy="39.7" r="18.2"/>
			</g>
		</g>
		<g>
			<g>
				<circle class="st6" cx="242.5" cy="39.7" r="18.2"/>
			</g>
		</g>
		<path class="st7" d="M242.5,21.5v36.4c10.1,0,18.2-8.1,18.2-18.2S252.5,21.5,242.5,21.5z"/>
	</g>
	<polygon class="st8" points="38.3,307.3 61.5,247.9 101.1,242.1 94.1,297.3 	"/>
	<polygon class="st8" points="106.9,265.3 106.9,292.5 157.8,292.5 159.3,265.3 	"/>
	<polygon class="st9" points="159.3,265.3 169.4,266.9 179.5,297.2 157.8,292.5 	"/>
	<polygon class="st8" points="38.7,242.1 88.9,233.3 99.4,204.2 47,214.4 	"/>
	<path class="st8" d="M99.4,227.9c0,0,44.8-4.6,57.6-25.6l-15.4-21.8l-32,10.8L99.4,227.9z"/>
	<polygon class="st8" points="99.4,199.6 104,180.1 56,185.6 54.6,207.9 	"/>
	<polygon class="st8" points="58.6,175.7 121.5,163.2 115.7,172.8 57.2,180.5 	"/>
	<polygon class="st8" points="35.5,252.5 50.3,249.8 25.5,316.6 16.1,318.5 	"/>
	<polygon class="st8" points="104.6,235.9 106.9,260.3 159.7,258 162,215.7 	"/>
	<polygon class="st9" points="162,215.7 187.3,225.8 181.8,265.3 159.7,258 	"/>
	<polygon class="st9" points="150.4,163.2 162.8,200.5 187.3,209.5 193.5,165.6 165.2,161.3 	"/>
	<polygon class="st8" points="165.2,161.3 162.8,200.5 150.4,163.2 	"/>
	<polygon class="st9" points="200.4,160.1 200.4,188.5 242.4,185.4 239.1,166.6 	"/>
	<path class="st9" d="M200.4,194l-10.2,24.2c0,0,41.1,10.5,52.3,5v-13.7l7.8-1.6v-10L200.4,194z"/>
	<path class="st9" d="M193.5,227.9l3.1,37.4h58.2v-15.5c0,0-7.6-10.7-7.6-17.1L193.5,227.9z"/>
	<polygon class="st9" points="193.5,302.5 190.2,281.3 216.4,274.7 247.2,278.9 266.4,313 	"/>
	<polygon class="st9" points="254.8,174.3 266.4,194 307.4,193.7 305.8,177.2 270.6,171.9 	"/>
	<polygon class="st8" points="305.8,177.2 307.4,193.7 336.2,188.5 330.6,173.5 	"/>
	<polygon class="st9" points="261.8,204.2 260.5,207.9 254.8,223.2 310.9,227.9 308.1,200.5 	"/>
	<polygon class="st8" points="308.1,200.5 330.8,194 321.2,227.9 310.9,227.9 	"/>
	<polygon class="st9" points="254.8,237.4 266.4,270 300.2,270 288.1,238 261.8,234.3 	"/>
	<polygon class="st9" points="312.2,240.5 305.8,242.1 315.1,270 	"/>
	<polygon class="st8" points="312.2,240.5 336.2,234.3 345.6,260.3 315.1,270 	"/>
	<polygon class="st8" points="330.8,277.7 316.3,281.3 320.2,320.7 362.6,299.2 345.6,281.3 	"/>
	<path class="st9" d="M316.3,281.3l-16.1-2.3h-26.8l-11.6,14.9c0,0,20.1,23.9,58.4,26.8L316.3,281.3z"/>
	<polygon class="st8" points="427.8,160.1 368.8,167.6 345.6,180.9 336.2,207.9 440.2,188.5 	"/>
	<polygon class="st8" points="444.1,200.5 411.5,200.5 380.5,215.7 416.9,240.5 461.2,237.4 	"/>
	<path class="st8" d="M339.4,215.7l30.9-6.2v18.5l10.1,12.6C380.5,240.5,342.6,261.5,339.4,215.7z"/>
	<polygon class="st8" points="394,261.9 386.1,284.6 380.5,307.3 424.7,297.2 430.5,265.3 	"/>
	<path class="st8" d="M466.6,249.8l17.8,39.6l-45.8,10.4l-4.7-25.1C434,274.7,446.4,251.4,466.6,249.8z"/>
	<path class="st10" d="M465.1,246.4c-29.7,12.9-50.6,12.2-64.5,8.8c-6.2-1.5-9.8-3.2-16.6-3.8c-21.2-1.8-39.4,10.2-51.7,20.9
		c-5.4,3-10.7,6-16.1,8.9l-1.1-11.3c2.9-0.9,7.3-2.5,12.2-5c9.4-4.9,12-8.6,18.2-12.8c14.2-9.5,30.1-9.7,36.9-9.7
		c9.6-0.1,15.1,1.7,21.3,2.9c12.8,2.4,31.6,2.6,57.4-7.9C462.5,240.4,463.8,243.4,465.1,246.4z"/>
	<path class="st11" d="M315.1,270l1.1,11.3c0,0-16.1,0.8-42.9-2.3c-26.8-3.1-45.8,0.9-57-4.2c-11.3-5.1-56.7-3.2-56.7-3.2V258
		c0,0,47.3,0.4,60.5,7.4C233.4,272.3,295.6,263.4,315.1,270z"/>
	<path class="st10" d="M159.7,258c0,0-26.8,0.8-46.6,4.3c-19.8,3.5,1.4-20.1-6.2-27.2s-68.3,7-68.3,7l-3.1,10.5
		c0,0,51.6-13.6,57-8.5c5.4,5-11.3,23.4-0.8,30.7c10.5,7.3,67.9-3.2,67.9-3.2V258z"/>
	<path class="st11" d="M273.8,270.8c0,0-16.7-12.4-19-36.5c-2.3-24.1,7.7-18.4,7.1-33.8c-0.6-15.3-11.6-32.1-11.6-32.1l-4.5-0.7
		c0,0,14,23.1,11.3,32.8c-2.7,9.7-11.3,30.7-6.8,40c4.5,9.3,14.6,30.3,18.1,32.2C271.8,274.7,273.8,270.8,273.8,270.8z"/>
	<path class="st12" d="M47,214.4c0,0,47.6-16.2,65.8-13.8c18.2,2.3,49.2,20,49.2,20l0.6-16.3c0,0-33.2-12.6-49.1-15.7
		c-15.9-3.1-63.2,13.6-63.2,13.6L47,214.4z"/>
	<path class="st13" d="M162.6,204.2c0,0,71.6,30.8,92.1,30.1c20.6-0.8,51-57.1,51-57.1l1.7,16.4c0,0-13.9,35-33.7,42.3
		c10.9,6.9,16.6,14.4,19.9,20c3.4,5.9,4.3,10.1,8.9,16.7c4.8,6.8,10.3,11.3,14.2,14.1c0.4,5.2,0.8,10.3,1.2,15.5
		c-3.9-3.1-9.8-8.1-15.8-15.3c-12-14.3-13.1-23.2-23-31.2c-9-7.2-18.6-8.4-25.6-9.6c-18.5-3-46.5-9.9-91.6-25.6
		C162.2,215.1,162.4,209.7,162.6,204.2z"/>
	<polygon class="st12" points="305.8,177.2 315.1,175.8 307.4,193.7 	"/>
	<path class="st12" d="M316.8,286.7c7.7,2.5,25.4,6.9,39.2-2.2c8.1-5.4,11.7-13.5,18.7-29.9c8.3-19.1,5.7-22,13.3-37.3
		c4-8,9.5-19.1,20.7-29.5c0,0,2.9-2.6,23.4-17.7l0,0l4.7,10.7c-7.4,5.1-17.7,13.7-26.4,27.1c-4.6,7-7.7,13.7-9.8,19.4l52.7-6.9
		l2,4.2l-53.1,8.3c-3.2,5.1-7.8,13.2-12,23.8c-3.3,8.3-3.8,11.8-6.5,17.8c-2.9,6.4-8.2,15.3-18.3,24.5c4.5,3.9,9,7.9,13.5,11.8
		l-21.7,2.6l-8.1-6.3c0,0-26.3,1-31-5.1L316.8,286.7z"/>
	<path class="st12" d="M144.6,200.5c0,0,18.3-19.2,20.8-46.2l-15,2.8c0,0-2.7,27.4-17.1,38.4L144.6,200.5z"/>
	<path class="st12" d="M150.4,175.8c0,0-13-6.1-13.2-15.7h-2c0,0,2.4,14.4,14.2,17.6C161.1,181,150.4,175.8,150.4,175.8z"/>
	<path class="st14" d="M366.5,237.9l0.1,9.3l4.8,2.8h-2.1H225.8l-4.8-2.8l-32.1-9.3l-0.6-0.3c-1.2-0.7,0.6-1.2,3.9-1.2
		c3.3,0,7,0.5,8.1,1.2l0.6,0.3c-1-0.6-0.3-1.1,1.6-1.4l-0.9-0.5l-12.9-14.2h133.9l24.6,14.2l0.9,0.5c2.8,0.3,5.4,0.8,6.4,1.4
		l-0.6-0.3c-1.2-0.7,0.6-1.2,3.9-1.2c3.3,0,7,0.5,8.1,1.2L366.5,237.9L366.5,237.9z"/>
	<polygon class="st15" points="195.3,232.1 210.9,232.1 315.8,170.5 300.3,170.5 	"/>
	<g>
		<rect x="185.3" y="118.1" class="st16" width="114.5" height="98"/>
		<rect x="195.1" y="128.5" class="st17" width="94.9" height="81.2"/>
		<rect x="185.3" y="118.1" class="st18" width="114.5" height="43.2"/>
		<rect x="195.1" y="128.5" class="st19" width="94.9" height="32.8"/>
		<rect x="185.3" y="107.4" class="st5" width="112.8" height="10.7"/>
		<rect x="185.3" y="107.4" class="st5" width="114.5" height="10.7"/>
		<polygon class="st20" points="298,118.1 185.3,118.1 172.7,154.1 310.6,154.1 		"/>
		<polygon class="st21" points="194.7,118.1 185.3,118.1 172.7,154.1 182.1,154.1 		"/>
		<polygon class="st21" points="215.7,118.1 206.3,118.1 197.9,154.1 207.3,154.1 		"/>
		<polygon class="st21" points="236.7,118.1 227.3,118.1 223.1,154.1 232.5,154.1 		"/>
		<polygon class="st21" points="257.7,118.1 248.3,118.1 252.5,154.1 261.9,154.1 		"/>
		<polygon class="st21" points="278.7,118.1 269.3,118.1 277.7,154.1 287.1,154.1 		"/>
		<polygon class="st21" points="299.7,118.1 290.3,118.1 302.9,154.1 312.3,154.1 		"/>
		<path class="st22" d="M177.4,160.1L177.4,160.1c-2.6,0-4.7-2.1-4.7-4.7v-1.3h9.5v1.3C182.1,158,180,160.1,177.4,160.1z"/>
		<path class="st23" d="M191.8,160.1h-3.6c-3.3,0-6-2.7-6-6l0,0h15.7l0,0C197.9,157.4,195.1,160.1,191.8,160.1z"/>
		<path class="st22" d="M202.6,160.1L202.6,160.1c-2.6,0-4.7-2.1-4.7-4.7v-1.3h9.5v1.3C207.3,158,205.2,160.1,202.6,160.1z"/>
		<path class="st23" d="M217,160.1h-3.6c-3.3,0-6-2.7-6-6l0,0h15.7l0,0C223.1,157.4,220.4,160.1,217,160.1z"/>
		<path class="st22" d="M227.8,160.1L227.8,160.1c-2.6,0-4.7-2.1-4.7-4.7v-1.3h9.5v1.3C232.5,158,230.4,160.1,227.8,160.1z"/>
		<path class="st23" d="M246.4,160.1h-7.8c-3.3,0-6-2.7-6-6l0,0h19.9l0,0C252.5,157.4,249.8,160.1,246.4,160.1z"/>
		<path class="st22" d="M257.2,160.1L257.2,160.1c-2.6,0-4.7-2.1-4.7-4.7v-1.3h9.5v1.3C261.9,158,259.8,160.1,257.2,160.1z"/>
		<path class="st23" d="M271.6,160.1H268c-3.3,0-6-2.7-6-6l0,0h15.7l0,0C277.7,157.4,275,160.1,271.6,160.1z"/>
		<path class="st22" d="M282.4,160.1L282.4,160.1c-2.6,0-4.7-2.1-4.7-4.7v-1.3h9.5v1.3C287.1,158,285,160.1,282.4,160.1z"/>
		<path class="st23" d="M296.8,160.1h-3.6c-3.3,0-6-2.7-6-6l0,0h15.7l0,0C302.9,157.4,300.2,160.1,296.8,160.1z"/>
		<path class="st22" d="M309,160.1h-2.8c-1.8,0-3.3-1.5-3.3-3.3v-2.7h9.5v2.7C312.3,158.6,310.9,160.1,309,160.1z"/>
	</g>
</g>
</svg>
