<?xml version="1.0" encoding="utf-8"?>
<!-- Generator: Adobe Illustrator 24.1.2, SVG Export Plug-In . SVG Version: 6.00 Build 0)  -->
<svg version="1.1" id="Layer_1" xmlns="http://www.w3.org/2000/svg" xmlns:xlink="http://www.w3.org/1999/xlink" x="0px" y="0px"
	 viewBox="0 0 578 308" style="enable-background:new 0 0 578 308;" xml:space="preserve">
<style type="text/css">
	.st0{clip-path:url(#SVGID_2_);fill-rule:evenodd;clip-rule:evenodd;fill:#FFF200;}
	.st1{clip-path:url(#SVGID_2_);fill-rule:evenodd;clip-rule:evenodd;fill:#6D6E70;}
	.st2{clip-path:url(#SVGID_2_);fill-rule:evenodd;clip-rule:evenodd;fill:#ED1C24;}
	.st3{clip-path:url(#SVGID_2_);fill:#FFFFFF;}
	.st4{clip-path:url(#SVGID_2_);fill:#041018;}
	.st5{clip-path:url(#SVGID_2_);fill:#ED1C24;}
</style>
<g>
	<defs>
		<rect id="SVGID_1_" x="-17" y="-13" width="614" height="330"/>
	</defs>
	<clipPath id="SVGID_2_">
		<use xlink:href="#SVGID_1_"  style="overflow:visible;"/>
	</clipPath>
	<rect x="9.4" y="142.9" class="st0" width="560.1" height="130.7"/>
	<path class="st1" d="M48.2,3.5h30.7c3.9,0,7.2,3.2,7.2,7.2v36.6c0,3.9-3.2,7.2-7.2,7.2H48.2c-3.9,0-7.2-3.2-7.2-7.2V10.7
		C41,6.8,44.2,3.5,48.2,3.5"/>
	<path class="st1" d="M500,3.5h30.7c3.9,0,7.2,3.2,7.2,7.2v36.6c0,3.9-3.2,7.2-7.2,7.2H500c-3.9,0-7.2-3.2-7.2-7.2V10.7
		C492.9,6.8,496.1,3.5,500,3.5"/>
	<rect x="9.4" y="273.6" class="st2" width="560.1" height="27.1"/>
	<path class="st3" d="M503.9,284.9l1.6,3.9h-3.3L503.9,284.9z M507.1,292.8h2.3l-4.7-10.9h-1.4l-4.8,10.9h2.3l0.9-2.1h4.7
		L507.1,292.8z M491,292.8h2.1v-10.9H491V292.8z M482.9,287.4v3.2c-0.5,0.2-1.2,0.4-2,0.4c-2.1,0-3.7-1.5-3.7-3.7
		c0-2.2,1.6-3.6,3.8-3.6c1.5,0,2.4,0.6,2.7,0.7l0.9-1.7c-0.4-0.3-1.6-1-3.7-1c-3.4,0-5.9,2.5-5.9,5.6c0,3.1,2.4,5.6,5.8,5.6
		c2.3,0,3.6-0.8,4.2-1.3v-4.3H482.9z M465.1,284.9l1.6,3.9h-3.3L465.1,284.9z M468.3,292.8h2.3l-4.7-10.9h-1.4l-4.8,10.9h2.3
		l0.9-2.1h4.7L468.3,292.8z M454.5,292.8l-0.3-10.9h-1.3l-4.2,7.2l-4.1-7.2h-1.4l-0.3,10.9h2.1l0.1-6.5l2.9,5.3h1.3l3-5.3l0.1,6.5
		H454.5z M429.1,284.9l1.6,3.9h-3.3L429.1,284.9z M432.3,292.8h2.3l-4.7-10.9h-1.4l-4.8,10.9h2.3l0.9-2.1h4.7L432.3,292.8z
		 M413.4,290.9h-2v-7.1h2c2.3,0,3.6,1.4,3.6,3.6C417.1,289.5,415.7,290.9,413.4,290.9z M413.5,281.9h-4.2v10.9h4.2
		c3.4,0,5.7-2.2,5.7-5.5C419.3,284.1,417,281.9,413.5,281.9z M395.4,284.9l1.6,3.9h-3.3L395.4,284.9z M398.6,292.8h2.3l-4.7-10.9
		h-1.4l-4.8,10.9h2.3l0.9-2.1h4.7L398.6,292.8z M382.5,281.9v4.5H377v-4.5h-2.1v10.9h2.1v-4.5h5.6v4.5h2.1v-10.9H382.5z
		 M364.1,290.9v-9h-2.1v10.9h7.4v-1.9H364.1z M353.2,292.8h2.1v-10.9h-2.1V292.8z M339.3,284.9l1.6,3.9h-3.3L339.3,284.9z
		 M342.5,292.8h2.3l-4.7-10.9h-1.4l-4.8,10.9h2.3l0.9-2.1h4.7L342.5,292.8z M326.4,281.9v7.2l-6.5-7.3h-1.2v11h2.1v-7.2l6.5,7.3h1.2
		v-11H326.4z M305.3,292.9c2.3,0,3.9-1.3,3.9-3.3c0-2.1-1.4-2.8-3.3-3.4c-1.5-0.4-2.2-0.7-2.2-1.5c0-0.8,0.7-1.2,1.7-1.2
		c1.1,0,1.9,0.3,2.7,0.9l1-1.6c-0.9-0.7-2-1.1-3.6-1.1c-2.3,0-3.9,1.3-3.9,3.2c0,1.9,1.4,2.6,3.3,3.1c1.6,0.4,2.2,0.8,2.2,1.7
		c0,0.9-0.7,1.3-1.7,1.3c-1.1,0-2.2-0.4-3.2-1.2l-1.1,1.7C302.1,292.5,303.4,292.9,305.3,292.9z M291.2,284.9l1.6,3.9h-3.3
		L291.2,284.9z M294.4,292.8h2.3l-4.7-10.9h-1.4l-4.8,10.9h2.3l0.9-2.1h4.7L294.4,292.8z M278.3,292.8h2.1v-10.9h-2.1V292.8z
		 M266.1,283.8h1.6c1.4,0,2.4,0.8,2.4,2.1c0,1.2-0.9,2-2.4,2h-1.6V283.8z M272.6,292.8l-2.5-3.6c1.3-0.6,2.1-1.8,2.1-3.4
		c0-2.4-1.8-3.9-4.4-3.9h-3.9v10.9h2.1v-3.1h1.6h0.3l2.1,3.1H272.6z M252.4,290.9v-2.7h4.7v-1.9h-4.7v-2.6h5.3v-1.9h-7.5v10.9h7.5
		v-1.9H252.4z M244.8,281.9h-9.4v1.9h3.6v9h2.1v-9h3.6V281.9z M227,284.9l1.6,3.9h-3.3L227,284.9z M230.2,292.8h2.3l-4.7-10.9h-1.4
		l-4.8,10.9h2.3l0.9-2.1h4.7L230.2,292.8z M212.8,291h-2.2v-2.9h2.2c1.4,0,2,0.6,2,1.4C214.9,290.5,214.2,291,212.8,291z
		 M214.5,285.1c0,0.9-0.6,1.3-1.8,1.3h-2.1v-2.8h2C213.9,283.7,214.5,284.2,214.5,285.1z M215,287.1c0.9-0.4,1.6-1.2,1.6-2.4
		c0-1.6-1.2-2.8-4-2.8h-4.1v10.9h4.3c2.9,0,4.1-1.2,4.1-3.1C217,288.5,216.3,287.4,215,287.1z M193.4,290.9v-2.7h4.7v-1.9h-4.7v-2.6
		h5.3v-1.9h-7.5v10.9h7.5v-1.9H193.4z M179.4,290.9h-2v-7.1h2c2.3,0,3.6,1.4,3.6,3.6C183,289.5,181.7,290.9,179.4,290.9z
		 M179.5,281.9h-4.2v10.9h4.2c3.4,0,5.7-2.2,5.7-5.5C185.2,284.1,182.9,281.9,179.5,281.9z M161.4,284.9l1.6,3.9h-3.3L161.4,284.9z
		 M164.6,292.8h2.3l-4.7-10.9h-1.4l-4.8,10.9h2.3l0.9-2.1h4.7L164.6,292.8z M147.2,292.9c2.4,0,3.8-1.5,3.8-3.9v-7.1h-2.2v7.1
		c0,1.2-0.7,1.9-1.8,1.9c-0.6,0-1.2-0.1-1.5-0.3l-0.8,1.8C144.8,292.4,145.6,292.9,147.2,292.9z M134.8,291c-2.1,0-3.6-1.6-3.6-3.6
		c0-2.1,1.5-3.6,3.6-3.6c2,0,3.5,1.6,3.5,3.6C138.3,289.4,136.8,291,134.8,291z M134.8,292.9c3.3,0,5.7-2.4,5.7-5.6
		c0-3.2-2.4-5.6-5.7-5.6c-3.3,0-5.8,2.5-5.8,5.6C129,290.5,131.5,292.9,134.8,292.9z M119.4,290.9v-9h-2.1v10.9h7.4v-1.9H119.4z
		 M103.4,284.9l1.6,3.9h-3.3L103.4,284.9z M106.6,292.8h2.3l-4.7-10.9h-1.4l-4.8,10.9h2.3l0.9-2.1h4.7L106.6,292.8z M88.3,292.9
		c2.9,0,4.8-1.7,4.8-4.8v-6.2H91v6.4c0,1.5-0.9,2.7-2.7,2.7c-1.8,0-2.7-1.2-2.7-2.7v-6.4h-2.1v6.2C83.5,291.3,85.4,292.9,88.3,292.9
		z M73.8,292.9c2.3,0,3.9-1.3,3.9-3.3c0-2.1-1.4-2.8-3.3-3.4c-1.5-0.4-2.2-0.7-2.2-1.5c0-0.8,0.7-1.2,1.7-1.2c1.1,0,1.9,0.3,2.7,0.9
		l1-1.6c-0.9-0.7-2-1.1-3.6-1.1c-2.3,0-3.9,1.3-3.9,3.2c0,1.9,1.4,2.6,3.3,3.1c1.6,0.4,2.2,0.8,2.2,1.7c0,0.9-0.7,1.3-1.7,1.3
		c-1.1,0-2.2-0.4-3.2-1.2l-1.1,1.7C70.6,292.5,72,292.9,73.8,292.9z"/>
	<rect x="9.4" y="35.3" class="st2" width="560.1" height="107.6"/>
	<path class="st3" d="M511.8,129.4c16.7,0,26.8-9.7,26.8-24.4c0-16.1-10.6-20.7-21.4-24.5c-9.9-3.5-14.2-4.6-14.2-9.2
		c0-4.7,4.3-6.4,9.7-6.4c6.8,0,12.9,2.6,17.8,6.3l7.9-14.1c-6.2-5-14.9-8.4-25.6-8.4c-16.8,0-27.7,9.3-27.7,23.9
		c0,14.5,10.5,19.1,22.1,23c10,3.4,13.8,5.1,13.8,10.4c0,5.1-4,7-8.8,7c-7.5,0-14.6-2.6-21.7-8.7l-8.6,14.8
		C489.6,125.6,498.7,129.4,511.8,129.4 M442.6,76.5l8.7,22.2H434L442.6,76.5z M462,128.4h18.6l-32.3-78.7h-11l-32.6,78.7h18.6
		l5.3-14h28.3L462,128.4z M379.8,128.4h17.5V49.8h-17.5V128.4z M327.5,66.1h8.3c8.4,0,13.8,5.3,13.8,12.9c0,7.4-5.4,12.1-13.7,12.1
		h-8.4V66.1z M370.4,128.4L354,103.2c8.8-4.7,13.9-13.3,13.9-24.3c0-17.2-12.1-29.2-30.6-29.2H310v78.7h17.5v-21h9h0.1l13.4,21
		H370.4z M261.9,112V97.1h30V80.5h-30V66.3h34V49.8h-51.5v78.7h52V112H261.9z M235.2,49.8h-65.4v16.6h23.9v62.1h17.5V66.3h24V49.8z
		 M139.3,76.5l8.7,22.2h-17.2L139.3,76.5z M158.7,128.4h18.6L145,49.8h-11l-32.6,78.7h18.6l5.3-14h28.3L158.7,128.4z M70.3,113H56.8
		V96.1h13c8.2,0,12,3,12,8.6C81.9,109.7,78.4,113,70.3,113z M79.5,73.4c0,5.3-3.1,8.2-10.8,8.2H56.8V65.2h11.8
		C76.3,65.2,79.5,68.3,79.5,73.4z M85.4,86.9c6.5-2.5,10.8-8.5,10.8-17c0-11.3-7.9-20.1-27.4-20.1H39.7v78.7h30.5
		c20.3,0,28.8-8.6,28.8-22.6C99,96.7,94.3,89.3,85.4,86.9z"/>
	<path class="st4" d="M511.8,190.1l10.6,25.2h-21L511.8,190.1z M535.5,249.2h22.7l-39.5-89.6h-13.4l-39.9,89.6h22.7l6.5-15.9h34.5
		L535.5,249.2z M431.5,206.1h-10.1v-27.7h10.1c11.2,0,16.8,7.4,16.8,14.1C448.3,199.1,442.9,206.1,431.5,206.1z M432.7,159.6H400
		v89.6h21.4v-24l10.3-0.1c23.1-0.1,38.4-12.9,38.4-32.1C470.1,173.1,455.2,159.6,432.7,159.6z M358.7,249.2h21.4v-89.6h-21.4V249.2z
		 M294.9,178.2H305c10.3,0,16.8,6,16.8,14.7c0,8.4-6.6,13.8-16.7,13.8h-10.3V178.2z M347.2,249.2l-20-28.7
		c10.7-5.4,16.9-15.2,16.9-27.7c0-19.6-14.8-33.3-37.3-33.3h-33.4v89.6h21.4v-24h11h0.1l16.3,24H347.2z M84.3,178.5v-18.9H21.5v89.6
		h21.4v-28.3h35.6v-18.9H42.9v-23.6H84.3z M119.7,230.5v-70.9H98.3v89.6h62.2v-18.7H119.7z"/>
	<path class="st5" d="M218.1,220.2l-32.2,13.2l23.6-80.7c-26.4,1.1-47.5,22.9-47.5,49.6c0,26.1,20.2,47.5,45.8,49.5L218.1,220.2z"/>
	<path class="st5" d="M237,159.6v-8.3l-28.2,61.1l28.6-11.1L201,272.5l15.6-20.9c25.1-2.5,44.7-23.6,44.7-49.4
		C261.3,184.1,251.5,168.2,237,159.6"/>
	<polygon class="st3" points="61.7,31.1 61.7,22.6 53.2,22.6 53.2,19.1 61.7,19.1 61.7,10.6 65.3,10.6 65.3,19.1 73.8,19.1 
		73.8,22.6 65.3,22.6 65.3,31.1 	"/>
	<rect x="507" y="17.2" class="st3" width="16.6" height="5.4"/>
</g>
</svg>
